<svg width="100%" height="100%" viewBox="0 0 50 100" fill="none" xmlns="http://www.w3.org/2000/svg">
<g clip-path="url(#clip0_1151_140)">
<path d="M4.94336 78.9298H3.4657C2.80507 78.9298 2.26953 79.4167 2.26953 80.0174V87.8118C2.26953 88.4125 2.80507 88.8994 3.4657 88.8994H4.94336C5.60399 88.8994 6.13953 88.4125 6.13953 87.8118V80.0174C6.13953 79.4167 5.60399 78.9298 4.94336 78.9298Z" fill="#60585A"/>
<path d="M46.0469 77.663H44.5692C43.9086 77.663 43.373 78.1499 43.373 78.7505V86.545C43.373 87.1456 43.9086 87.6326 44.5692 87.6326H46.0469C46.7075 87.6326 47.243 87.1456 47.243 86.545V78.7505C47.243 78.1499 46.7075 77.663 46.0469 77.663Z" fill="#60585A"/>
<path d="M28.7076 8.47901C29.4702 8.51968 30.2594 8.52816 31.016 8.43594C31.5139 8.34574 32.6145 7.95872 32.0826 7.3367C31.3517 6.69795 30.0579 6.79588 29.1341 6.86759L29.0625 6.10823C30.3345 6.01322 31.8722 5.98256 32.8024 6.91002C33.6358 8.11619 32.332 8.98753 31.1269 9.19251C30.3213 9.28537 29.5157 9.23672 28.7078 9.27966V8.47901H28.7076Z" fill="#4A00AD"/>
<path d="M28.7076 4.47326C29.4702 4.43259 30.2594 4.42411 31.016 4.51633C31.5139 4.60653 32.6145 4.99355 32.0826 5.61557C31.3517 6.25432 30.0579 6.15639 29.1341 6.08469L29.0625 6.84404C30.3345 6.93905 31.8722 6.96971 32.8024 6.04225C33.6358 4.83608 32.332 3.96474 31.1269 3.75977C30.3213 3.66691 29.5157 3.71555 28.7078 3.67261V4.47326H28.7076Z" fill="#4A00AD"/>
<path d="M25.7323 6.2125C26.02 6.23745 26.3157 6.22663 26.6041 6.22803C26.8482 6.22873 27.6674 6.34234 27.8194 6.10168C27.873 5.93012 27.7818 5.73379 27.6233 5.63798C27.239 5.45839 26.7202 5.54984 26.3079 5.56781C25.8035 5.5898 25.1194 5.64042 24.9652 5.0823C24.9174 4.62662 25.2297 4.18962 25.6193 3.92522C26.1346 3.63709 26.7213 3.69032 27.2962 3.75611C27.6385 3.79747 27.9799 3.84512 28.3231 3.88019L28.2599 4.36187C27.9157 4.32453 27.5735 4.2727 27.2298 4.23134C26.8095 4.18456 26.3271 4.11353 25.9422 4.31702C25.7207 4.45925 25.507 4.72156 25.5053 4.97863C25.5033 5.17008 26.1608 5.09451 26.2806 5.0891C26.8368 5.06205 27.4415 4.98038 27.9463 5.24199C28.3529 5.51913 28.5326 6.04879 28.2171 6.44356C27.8053 6.79923 27.1275 6.70743 26.6041 6.70901C26.3157 6.71023 26.02 6.69941 25.7323 6.72437V6.2125Z" fill="#4A00AD"/>
<path d="M25.2842 6.71106C24.9505 6.68037 24.6049 6.69249 24.2701 6.69088C23.6384 6.68886 23.0068 6.69316 22.3749 6.69545C22.2484 6.69612 22.1217 6.69693 21.9951 6.7003V6.26598C22.1217 6.26948 22.2484 6.27028 22.3749 6.27096C23.0068 6.27324 23.6384 6.27755 24.2701 6.27553C24.6049 6.27392 24.9505 6.28603 25.2842 6.25534V6.71106Z" fill="#4A00AD"/>
<path d="M23.4232 6.39258C23.449 6.22542 23.4361 6.04923 23.4374 5.8814C23.4391 5.54654 23.4393 5.21169 23.4364 4.87669C23.4344 4.65489 23.4318 4.43308 23.4312 4.21127C23.431 4.07857 23.4315 3.94573 23.4318 3.81302H23.9714C23.9717 3.94573 23.9722 4.07857 23.9719 4.21127C23.9714 4.43308 23.9688 4.65489 23.9668 4.87669C23.9639 5.21169 23.9639 5.54654 23.9657 5.8814C23.9671 6.04923 23.954 6.22542 23.98 6.39258H23.4232Z" fill="#4A00AD"/>
<path d="M21.3448 6.62054C21.3753 6.40442 21.3607 6.17689 21.3634 5.95962C21.3698 5.41361 21.3705 4.86748 21.3646 4.32134C21.3622 4.14259 21.3593 3.96371 21.3554 3.78496H21.8117C21.8079 3.96371 21.8048 4.14259 21.8025 4.32134C21.7965 4.86748 21.7973 5.41361 21.8036 5.95962C21.8065 6.17689 21.7918 6.40442 21.8223 6.62054H21.3448Z" fill="#4A00AD"/>
<path d="M21.6304 6.75104C21.4339 6.73127 21.2315 6.74167 21.034 6.73673C20.6123 6.71924 20.2414 6.60738 20.186 6.17792C20.1734 5.74782 20.4329 5.48989 20.8923 5.41021C21.1079 5.3855 21.3185 5.39298 21.534 5.41388L21.4848 5.81509C21.3146 5.79773 21.1473 5.78976 20.9769 5.80863C20.7533 5.84613 20.64 5.92011 20.6418 6.13497C20.6591 6.32943 20.8643 6.32348 21.0452 6.33133C21.2379 6.33488 21.4382 6.34159 21.6304 6.32208V6.75104Z" fill="#4A00AD"/>
<path d="M21.4424 5.60199C21.272 5.58476 21.0952 5.59287 20.9241 5.59161C20.5565 5.58894 20.1442 5.61491 19.8389 5.39714C19.5807 5.14884 19.6696 4.84328 19.7663 4.54886C19.8321 4.34958 19.8881 4.15386 19.8952 3.94496C19.8956 3.90416 19.8952 3.86375 19.8941 3.82308L20.3546 3.81244C20.356 3.86096 20.3564 3.90936 20.3559 3.95788C20.3472 4.20251 20.2826 4.43206 20.2051 4.66516C20.17 4.77208 20.0723 4.96996 20.1374 5.08195C20.2929 5.24259 20.7188 5.18495 20.9241 5.18343C21.0952 5.18216 21.272 5.19027 21.4424 5.17304V5.60199Z" fill="#4A00AD"/>
<path d="M21.4905 6.74976H21.8184V6.36648H21.4905V6.74976Z" fill="#4A00AD"/>
<path fill-rule="evenodd" clip-rule="evenodd" d="M16.3385 5.2384C16.3385 4.35692 17.0624 3.64141 17.9545 3.64141C18.8465 3.64141 19.5703 4.35692 19.5703 5.2384C19.5703 6.12 18.8465 6.83539 17.9545 6.83539C17.0624 6.83539 16.3385 6.12 16.3385 5.2384ZM16.8537 5.27919C16.8537 4.67883 17.347 4.19147 17.9545 4.19147C18.5621 4.19147 19.0552 4.67883 19.0552 5.27919C19.0552 5.8798 18.5621 6.36703 17.9545 6.36703C17.347 6.36703 16.8537 5.8798 16.8537 5.27919Z" fill="#4A00AD"/>
<path d="M47.0923 12.4199H45.6146C44.954 12.4199 44.4185 12.9068 44.4185 13.5075V21.3019C44.4185 21.9026 44.954 22.3895 45.6146 22.3895H47.0923C47.7529 22.3895 48.2885 21.9026 48.2885 21.3019V13.5075C48.2885 12.9068 47.7529 12.4199 47.0923 12.4199Z" fill="#60585A"/>
<path d="M3.87696 12.8104H2.39929C1.73867 12.8104 1.20312 13.2973 1.20312 13.8979V21.6924C1.20312 22.293 1.73867 22.78 2.39929 22.78H3.87696C4.53758 22.78 5.07313 22.293 5.07313 21.6924V13.8979C5.07313 13.2973 4.53758 12.8104 3.87696 12.8104Z" fill="#60585A"/>
<path fill-rule="evenodd" clip-rule="evenodd" d="M24.9031 99.1918C9.14858 99.491 6.73392 96.9216 4.40565 96.4983C2.07807 91.586 1.63611 50.1658 3.03251 46.7796C4.07654 39.1101 2.34476 37.84 1.82212 28.5965C0.827272 17.8013 3.18968 23.8041 1.20361 12.8267C4.22131 1.39773 -1.46268 1.16501 24.6842 0.0784302C48.6789 0.382601 45.3 1.39785 48.3166 12.8267C46.3305 23.8042 48.693 17.8014 47.6981 28.5965C47.1755 37.8395 45.4437 39.1095 46.4877 46.7796C47.8841 50.1655 47.4422 91.5855 45.1146 96.4983C41.4706 98.418 31.8139 99.1918 24.9014 99.1918H24.9031Z" fill="url(#paint0_radial_1151_140)" stroke="black" stroke-width="1.33333"/>
<path fill-rule="evenodd" clip-rule="evenodd" d="M5.7877 35.7099L8.78812 46.1541C8.78812 46.1541 8.78812 65.737 8.35955 66.0626C7.93081 66.3889 4.50195 71.9373 4.50195 71.9373C4.50195 71.9373 5.35909 36.3629 5.78784 35.7092L5.7877 35.7099Z" fill="url(#paint1_radial_1151_140)"/>
<path fill-rule="evenodd" clip-rule="evenodd" d="M44.4252 35.0765L41.4248 45.5207C41.4248 45.5207 41.4248 65.1036 41.8534 65.4292C42.2821 65.7555 45.711 71.3038 45.711 71.3038C45.711 71.3038 44.8538 35.7294 44.4251 35.0757L44.4252 35.0765Z" fill="url(#paint2_radial_1151_140)"/>
<path fill-rule="evenodd" clip-rule="evenodd" d="M5.18271 5.64013C3.5571 8.00496 3.67567 30.4982 6.27662 32.2718C8.78881 30.3904 23.3422 28.6428 26.1094 28.8052C28.9362 28.6162 40.0002 29.8257 43.3994 31.6806C44.3158 31.9504 46.148 5.64051 43.5469 3.86692C35.4182 1.79638 8.43337 1.79638 5.18271 5.63924V5.64013Z" fill="#F7CE00" stroke="black" stroke-opacity="0.45912" stroke-width="1.33333"/>
<path fill-rule="evenodd" clip-rule="evenodd" d="M5.81901 32.6075C5.81901 32.6075 14.9496 29.2 25.1363 29.1129C34.309 29.0317 38.4517 30.3319 44.0314 32.2824C43.3551 38.459 42.6787 44.3102 40.9879 46.2608C25.4326 42.6845 24.4183 42.6845 8.86304 46.2608C8.52446 44.3111 5.48098 32.9323 5.81915 32.608L5.81901 32.6075Z" fill="url(#paint3_radial_1151_140)"/>
<path fill-rule="evenodd" clip-rule="evenodd" d="M6.34125 32.9634C6.34125 32.9634 15.2284 29.8264 25.1444 29.7462C34.0726 29.6715 38.1048 30.8685 43.5365 32.6642C42.8782 38.3504 42.2199 43.7371 40.5741 45.5328C25.4327 42.2408 24.4462 42.2409 9.30475 45.5329C8.97564 43.7373 6.01326 33.2628 6.34237 32.9635L6.34125 32.9634Z" fill="black" fill-opacity="0.7044" stroke="black" stroke-width="1.33333"/>
<path fill-rule="evenodd" clip-rule="evenodd" d="M10.5473 67.3241C8.82388 74.8452 7.44531 89.2609 7.44531 89.2609C10.2027 91.4546 24.334 92.3947 24.6795 92.3947C25.7136 92.3947 39.8446 91.4546 42.2579 88.3208C42.2579 86.4405 40.8791 72.9653 39.5005 67.0111C27.4371 68.5779 11.238 67.9513 10.5483 67.3244L10.5473 67.3241Z" fill="url(#paint4_radial_1151_140)"/>
<path fill-rule="evenodd" clip-rule="evenodd" d="M11.2783 67.9778C9.63249 75.1602 8.31592 88.9265 8.31592 88.9265C10.9492 91.0213 24.4438 91.9191 24.774 91.9191C25.7615 91.9191 39.2564 91.0213 41.561 88.0286C41.561 86.233 40.2443 73.3649 38.9277 67.678C27.4075 69.1743 11.9373 68.5758 11.2783 67.9772V67.9778Z" fill="black" fill-opacity="0.78616" stroke="black" stroke-width="1.33333"/>
<path fill-rule="evenodd" clip-rule="evenodd" d="M44.8516 35.3565L48.8014 35.6557C48.8014 35.6557 50.7763 37.4514 49.4598 38.3492C48.143 39.247 44.8516 38.05 44.8516 38.05V35.3565Z" fill="#F7CE00" stroke="black" stroke-opacity="0.55346" stroke-width="1.25"/>
<path fill-rule="evenodd" clip-rule="evenodd" d="M5.14767 35.9557L1.19783 36.2549C1.19783 36.2549 -0.777094 38.0505 0.539473 38.9484C1.85618 39.8462 5.14767 38.6491 5.14767 38.6491V35.9557Z" fill="#F7CE00" stroke="black" stroke-opacity="0.54717" stroke-width="1.33333"/>
<path fill-rule="evenodd" clip-rule="evenodd" d="M7.32665 2.15681C6.06944 2.35609 4.63471 4.56357 5.2946 4.93146C6.86643 4.21075 9.93818 3.22046 12.9557 2.94454C13.5529 2.65316 14.3683 1.75927 14.399 1.56C12.3248 1.4527 8.69811 1.91155 7.32665 2.15681Z" fill="#2E87CF" fill-opacity="0.56604" stroke="black" stroke-opacity="0.25157" stroke-width="1.44267"/>
<path fill-rule="evenodd" clip-rule="evenodd" d="M41.619 1.53477C42.8762 1.73406 44.3109 3.38855 43.651 3.75645C42.0793 3.03579 39.0074 2.80566 35.9899 2.52967C35.3928 2.2383 34.5779 1.13715 34.5464 0.937871C36.6208 0.830544 40.2475 1.2895 41.619 1.53477Z" fill="#2E87CF" fill-opacity="0.56604" stroke="black" stroke-opacity="0.25157" stroke-width="1.44267"/>
<path d="M15.646 1.31499C20.815 0.485579 29.5567 0.554622 33.2815 0.969262" stroke="black" stroke-opacity="0.37107" stroke-width="1.33333"/>
<path d="M15.646 1.66057C20.815 0.83116 29.5567 0.900203 33.2815 1.31484" stroke="black" stroke-opacity="0.37107" stroke-width="1.33333"/>
<path d="M15.646 2.07524C20.815 1.24583 29.5567 1.31488 33.2815 1.72952" stroke="black" stroke-opacity="0.37107" stroke-width="1.33333"/>
<path d="M15.646 2.55903C20.815 1.7988 29.3286 1.93688 32.9777 2.14414" stroke="black" stroke-opacity="0.37107" stroke-width="1.33333"/>
<path fill-rule="evenodd" clip-rule="evenodd" d="M6.01187 37.4519L8.3159 47.0287C8.3159 47.0287 8.3159 64.985 7.98679 65.284C7.65755 65.5832 5.02441 70.6707 5.02441 70.6707C5.02441 70.6707 5.68263 38.0506 6.01187 37.4514V37.4519Z" fill="black" fill-opacity="0.68554" stroke="black" stroke-width="1.33333"/>
<path d="M5.06483 39.3395C4.73976 42.5911 2.97607 95.5179 5.71496 95.504C15.4483 98.8569 36.5942 98.4917 44.5223 94.6171C46.9648 94.6081 45.4975 41.7034 45.1724 38.4526" stroke="black" stroke-width="1.33333"/>
<path fill-rule="evenodd" clip-rule="evenodd" d="M44.1942 36.8539L41.8901 46.4306C41.8901 46.4306 41.8901 64.387 42.2192 64.6859C42.5485 64.9852 45.1816 70.0727 45.1816 70.0727C45.1816 70.0727 44.5234 37.4526 44.1942 36.8534V36.8539Z" fill="black" fill-opacity="0.74843" stroke="black" stroke-width="1.33333"/>
</g>
<defs>
<radialGradient id="paint0_radial_1151_140" cx="0" cy="0" r="1" gradientUnits="userSpaceOnUse" gradientTransform="translate(25.1756 47.3202) scale(116.377 244.37)">
<stop stop-color="#F8CE00"/>
<stop offset="1" stop-color="#B79700"/>
</radialGradient>
<radialGradient id="paint1_radial_1151_140" cx="0" cy="0" r="1" gradientUnits="userSpaceOnUse" gradientTransform="translate(1.07239 50.1421) scale(0.863138 7.29525)">
<stop stop-color="#F8CE00"/>
<stop offset="1" stop-color="#B79700"/>
</radialGradient>
<radialGradient id="paint2_radial_1151_140" cx="0" cy="0" r="1" gradientUnits="userSpaceOnUse" gradientTransform="translate(49.141 49.5087) rotate(180) scale(0.863138 7.29525)">
<stop stop-color="#F8CE00"/>
<stop offset="1" stop-color="#B79700"/>
</radialGradient>
<radialGradient id="paint3_radial_1151_140" cx="0" cy="0" r="1" gradientUnits="userSpaceOnUse" gradientTransform="translate(24.9145 37.6847) scale(19.1201 8.5759)">
<stop stop-color="#F8CE00"/>
<stop offset="1" stop-color="#B79700"/>
</radialGradient>
<radialGradient id="paint4_radial_1151_140" cx="0" cy="0" r="1" gradientUnits="userSpaceOnUse" gradientTransform="translate(23.6617 78.7118) scale(18.7997 13.7083)">
<stop stop-color="#F8CE00"/>
<stop offset="1" stop-color="#B79700"/>
</radialGradient>
<clipPath id="clip0_1151_140">
<rect width="50" height="100" fill="white"/>
</clipPath>
</defs>
</svg>
