<svg width="100%" height="100%" viewBox="0 0 200 400" fill="none" xmlns="http://www.w3.org/2000/svg">
<g clip-path="url(#clip0_1152_214)">
<path d="M19.7727 315.719H13.8621C11.2196 315.719 9.07739 317.667 9.07739 320.07V351.247C9.07739 353.65 11.2196 355.598 13.8621 355.598H19.7727C22.4152 355.598 24.5574 353.65 24.5574 351.247V320.07C24.5574 317.667 22.4152 315.719 19.7727 315.719Z" fill="#60585A"/>
<path d="M184.188 310.652H178.278C175.635 310.652 173.493 312.6 173.493 315.002V346.18C173.493 348.583 175.635 350.53 178.278 350.53H184.188C186.831 350.53 188.973 348.583 188.973 346.18V315.002C188.973 312.6 186.831 310.652 184.188 310.652Z" fill="#60585A"/>
<path d="M114.83 33.9161C117.88 34.0787 121.037 34.1127 124.064 33.7437C126.055 33.383 130.458 31.8349 128.33 29.3468C125.407 26.7918 120.231 27.1835 116.536 27.4703L116.25 24.4329C121.338 24.0529 127.489 23.9302 131.209 27.6401C134.543 32.4647 129.328 35.9501 124.507 36.77C121.285 37.1415 118.062 36.9469 114.831 37.1187V33.9161H114.83Z" fill="#4A00AD"/>
<path d="M114.83 17.893C117.88 17.7304 121.037 17.6964 124.064 18.0653C126.055 18.4261 130.458 19.9742 128.33 22.4623C125.407 25.0173 120.231 24.6256 116.536 24.3387L116.25 27.3761C121.338 27.7562 127.489 27.8788 131.209 24.169C134.543 19.3443 129.328 15.859 124.507 15.0391C121.285 14.6676 118.062 14.8622 114.831 14.6904V17.893H114.83Z" fill="#4A00AD"/>
<path d="M102.929 24.85C104.08 24.9498 105.263 24.9065 106.416 24.9121C107.392 24.9149 110.669 25.3694 111.277 24.4067C111.492 23.7205 111.127 22.9352 110.493 22.5519C108.956 21.8336 106.881 22.1993 105.231 22.2712C103.214 22.3592 100.477 22.5617 99.8607 20.3292C99.6695 18.5065 100.919 16.7585 102.477 15.7009C104.538 14.5483 106.885 14.7613 109.184 15.0244C110.554 15.1899 111.919 15.3805 113.292 15.5208L113.04 17.4475C111.662 17.2981 110.294 17.0908 108.919 16.9253C107.238 16.7383 105.308 16.4541 103.768 17.2681C102.882 17.837 102.028 18.8862 102.021 19.9145C102.013 20.6803 104.643 20.3781 105.122 20.3564C107.347 20.2482 109.766 19.9215 111.785 20.968C113.411 22.0765 114.13 24.1952 112.868 25.7742C111.221 27.1969 108.51 26.8297 106.416 26.836C105.263 26.8409 104.08 26.7976 102.929 26.8975V24.85Z" fill="#4A00AD"/>
<path d="M101.136 26.8442C99.8009 26.7215 98.4187 26.77 97.0794 26.7635C94.5527 26.7554 92.0261 26.7727 89.4988 26.7818C88.9926 26.7845 88.4857 26.7877 87.9795 26.8012V25.0639C88.4857 25.0779 88.9926 25.0811 89.4988 25.0838C92.0261 25.093 94.5527 25.1102 97.0794 25.1021C98.4187 25.0957 99.8009 25.1441 101.136 25.0214V26.8442Z" fill="#4A00AD"/>
<path d="M93.6919 25.5703C93.7952 24.9017 93.7432 24.1969 93.7484 23.5256C93.7556 22.1862 93.7562 20.8467 93.7445 19.5068C93.7367 18.6195 93.7263 17.7323 93.7237 16.8451C93.7231 16.3143 93.725 15.7829 93.7263 15.2521H95.8845C95.8858 15.7829 95.8878 16.3143 95.8865 16.8451C95.8845 17.7323 95.8741 18.6195 95.8663 19.5068C95.8546 20.8467 95.8546 22.1862 95.8618 23.5256C95.8676 24.1969 95.815 24.9017 95.9189 25.5703H93.6919Z" fill="#4A00AD"/>
<path d="M85.3783 26.4819C85.5004 25.6174 85.4419 24.7073 85.453 23.8383C85.4787 21.6542 85.4814 19.4697 85.4575 17.2851C85.448 16.5701 85.4363 15.8546 85.4207 15.1396H87.246C87.2309 15.8546 87.2187 16.5701 87.2092 17.2851C87.1852 19.4697 87.1886 21.6542 87.2136 23.8383C87.2253 24.7073 87.1663 25.6174 87.2883 26.4819H85.3783Z" fill="#4A00AD"/>
<path d="M86.521 27.0039C85.7352 26.9249 84.9253 26.9664 84.1356 26.9467C82.4485 26.8767 80.9649 26.4293 80.7437 24.7114C80.6929 22.991 81.7313 21.9593 83.5688 21.6406C84.431 21.5418 85.2737 21.5717 86.1353 21.6553L85.9386 23.2601C85.2581 23.1907 84.5887 23.1588 83.9071 23.2343C83.0126 23.3843 82.5595 23.6802 82.5667 24.5396C82.6358 25.3175 83.4568 25.2937 84.1802 25.3251C84.951 25.3393 85.7524 25.3661 86.521 25.2881V27.0039Z" fill="#4A00AD"/>
<path d="M85.7686 22.4077C85.0869 22.3388 84.3797 22.3712 83.6953 22.3662C82.225 22.3555 80.5758 22.4594 79.3547 21.5883C78.322 20.5951 78.6776 19.3729 79.0644 18.1952C79.3274 17.3981 79.5515 16.6152 79.5799 15.7796C79.5816 15.6164 79.5799 15.4547 79.5754 15.2921L81.4174 15.2495C81.423 15.4436 81.4247 15.6372 81.4224 15.8313C81.3879 16.8098 81.1293 17.728 80.8194 18.6604C80.679 19.0881 80.2883 19.8796 80.5485 20.3276C81.1705 20.9701 82.8743 20.7396 83.6953 20.7335C84.3797 20.7284 85.0869 20.7608 85.7686 20.6919V22.4077Z" fill="#4A00AD"/>
<path d="M85.9617 26.999H87.2732V25.4659H85.9617V26.999Z" fill="#4A00AD"/>
<path fill-rule="evenodd" clip-rule="evenodd" d="M65.3534 20.9538C65.3534 17.4279 68.2493 14.5659 71.8173 14.5659C75.3854 14.5659 78.2808 17.4279 78.2808 20.9538C78.2808 24.4802 75.3854 27.3418 71.8173 27.3418C68.2493 27.3418 65.3534 24.4802 65.3534 20.9538ZM67.4144 21.117C67.4144 18.7156 69.3874 16.7661 71.8173 16.7661C74.2479 16.7661 76.2203 18.7156 76.2203 21.117C76.2203 23.5195 74.2479 25.4684 71.8173 25.4684C69.3874 25.4684 67.4144 23.5195 67.4144 21.117Z" fill="#4A00AD"/>
<path d="M188.368 49.6797H182.458C179.815 49.6797 177.673 51.6274 177.673 54.03V85.2078C177.673 87.6104 179.815 89.5581 182.458 89.5581H188.368C191.011 89.5581 193.153 87.6104 193.153 85.2078V54.03C193.153 51.6274 191.011 49.6797 188.368 49.6797Z" fill="#60585A"/>
<path d="M15.5071 51.2417H9.59644C6.95394 51.2417 4.81177 53.1894 4.81177 55.592V86.7698C4.81177 89.1724 6.95394 91.1201 9.59644 91.1201H15.5071C18.1496 91.1201 20.2918 89.1724 20.2918 86.7698V55.592C20.2918 53.1894 18.1496 51.2417 15.5071 51.2417Z" fill="#60585A"/>
<path fill-rule="evenodd" clip-rule="evenodd" d="M99.6128 396.767C36.5948 397.964 26.9362 387.686 17.6231 385.993C8.31278 366.344 6.54491 200.663 12.1305 187.118C16.3067 156.44 9.37952 151.36 7.28896 114.386C3.30958 71.2048 12.7592 95.2162 4.81494 51.3067C16.8857 5.59066 -5.85025 4.65978 98.7372 0.313477C194.716 1.53016 181.201 5.59117 193.267 51.3067C185.323 95.2167 194.772 71.2053 190.793 114.386C188.702 151.358 181.775 156.438 185.951 187.118C191.537 200.662 189.769 366.342 180.459 385.993C165.883 393.672 127.256 396.767 99.6061 396.767H99.6128Z" fill="#206CFF" stroke="black" stroke-width="1.33333"/>
<path fill-rule="evenodd" clip-rule="evenodd" d="M23.1501 142.84L35.1517 184.617C35.1517 184.617 35.1517 262.948 33.4375 264.251C31.7225 265.556 18.0071 287.749 18.0071 287.749C18.0071 287.749 21.4356 145.452 23.1506 142.837L23.1501 142.84Z" fill="url(#paint0_radial_1152_214)"/>
<path fill-rule="evenodd" clip-rule="evenodd" d="M177.701 140.306L165.699 182.083C165.699 182.083 165.699 260.415 167.413 261.717C169.128 263.022 182.844 285.216 182.844 285.216C182.844 285.216 179.415 142.918 177.7 140.303L177.701 140.306Z" fill="url(#paint1_radial_1152_214)"/>
<path fill-rule="evenodd" clip-rule="evenodd" d="M20.7318 22.5605C14.2294 32.0198 14.7037 121.993 25.1074 129.087C35.1562 121.562 93.37 114.571 104.439 115.221C115.746 114.465 160.002 119.303 173.598 126.722C177.264 127.802 184.593 22.562 174.189 15.4677C141.674 7.18552 33.7344 7.18553 20.7318 22.557V22.5605Z" fill="#206CFF" stroke="black" stroke-opacity="0.45912" stroke-width="1.33333"/>
<path fill-rule="evenodd" clip-rule="evenodd" d="M23.2765 130.43C23.2765 130.43 59.7988 116.8 100.546 116.451C137.237 116.127 153.807 121.328 176.126 129.13C173.421 153.836 170.715 177.241 163.952 185.043C101.731 170.738 97.6736 170.738 35.4526 185.043C34.0983 177.244 21.9244 131.729 23.2771 130.432L23.2765 130.43Z" fill="url(#paint2_radial_1152_214)"/>
<path fill-rule="evenodd" clip-rule="evenodd" d="M25.3643 131.854C25.3643 131.854 60.9129 119.306 100.577 118.985C136.29 118.686 152.418 123.474 174.145 130.657C171.512 153.402 168.879 174.948 162.296 182.131C101.73 168.963 97.784 168.964 37.2183 182.132C35.9018 174.949 24.0523 133.051 25.3687 131.854L25.3643 131.854Z" fill="black" fill-opacity="0.7044" stroke="black" stroke-width="1.33333"/>
<path fill-rule="evenodd" clip-rule="evenodd" d="M42.1887 269.297C35.295 299.381 29.7808 357.044 29.7808 357.044C40.8104 365.818 97.3354 369.579 98.7176 369.579C102.854 369.579 159.378 365.818 169.031 353.283C169.031 345.762 163.516 291.861 158.001 268.044C109.748 274.312 44.9514 271.805 42.1926 269.298L42.1887 269.297Z" fill="url(#paint3_radial_1152_214)"/>
<path fill-rule="evenodd" clip-rule="evenodd" d="M45.1137 271.911C38.5304 300.641 33.2642 355.706 33.2642 355.706C43.7973 364.085 97.7758 367.677 99.0967 367.677C103.047 367.677 157.026 364.085 166.245 352.115C166.245 344.932 160.978 293.459 155.711 270.712C109.63 276.697 47.7499 274.303 45.1137 271.909V271.911Z" fill="black" fill-opacity="0.78616" stroke="black" stroke-width="1.33333"/>
<path fill-rule="evenodd" clip-rule="evenodd" d="M179.406 141.426L195.206 142.623C195.206 142.623 203.106 149.805 197.839 153.396C192.572 156.988 179.406 152.2 179.406 152.2V141.426Z" fill="#206CFF" stroke="black" stroke-opacity="0.55346" stroke-width="1.25"/>
<path fill-rule="evenodd" clip-rule="evenodd" d="M20.5914 143.823L4.79204 145.02C4.79204 145.02 -3.10764 152.202 2.15862 155.793C7.42545 159.385 20.5914 154.597 20.5914 154.597V143.823Z" fill="#206CFF" stroke="black" stroke-opacity="0.54717" stroke-width="1.33333"/>
<path fill-rule="evenodd" clip-rule="evenodd" d="M29.3058 8.62748C24.277 9.42459 18.5381 18.2545 21.1777 19.7261C27.465 16.8433 39.752 12.8821 51.8222 11.7784C54.211 10.6129 57.4725 7.03734 57.5951 6.24023C49.2986 5.81103 34.7917 7.64644 29.3058 8.62748Z" fill="#2E87CF" fill-opacity="0.56604" stroke="black" stroke-opacity="0.25157" stroke-width="1.44267"/>
<path fill-rule="evenodd" clip-rule="evenodd" d="M166.476 6.13909C171.505 6.93624 177.244 13.5542 174.604 15.0258C168.318 12.1431 156.03 11.2226 143.96 10.1187C141.571 8.95322 138.312 4.54858 138.186 3.75148C146.483 3.32218 160.99 5.15799 166.476 6.13909Z" fill="#2E87CF" fill-opacity="0.56604" stroke="black" stroke-opacity="0.25157" stroke-width="1.44267"/>
<path d="M62.5833 5.26018C83.2593 1.94256 118.226 2.21873 133.125 3.87729" stroke="black" stroke-opacity="0.37107" stroke-width="1.33333"/>
<path d="M62.5833 6.64251C83.2593 3.32488 118.226 3.60106 133.125 5.25962" stroke="black" stroke-opacity="0.37107" stroke-width="1.33333"/>
<path d="M62.5833 8.30071C83.2593 4.98309 118.226 5.25926 133.125 6.91782" stroke="black" stroke-opacity="0.37107" stroke-width="1.33333"/>
<path d="M62.5833 10.2364C83.2593 7.19544 117.314 7.74778 131.91 8.57681" stroke="black" stroke-opacity="0.37107" stroke-width="1.33333"/>
<path fill-rule="evenodd" clip-rule="evenodd" d="M24.048 149.808L33.2641 188.115C33.2641 188.115 33.2641 259.94 31.9477 261.136C30.6307 262.333 20.0981 282.683 20.0981 282.683C20.0981 282.683 22.731 152.203 24.048 149.806V149.808Z" fill="black" fill-opacity="0.68554" stroke="black" stroke-width="1.33333"/>
<path d="M20.2591 157.358C18.9588 170.364 11.904 382.072 22.8596 382.016C61.7929 395.428 146.376 393.967 178.089 378.469C187.859 378.432 181.99 166.813 180.689 153.811" stroke="black" stroke-width="1.33333"/>
<path fill-rule="evenodd" clip-rule="evenodd" d="M176.776 147.416L167.56 185.723C167.56 185.723 167.56 257.548 168.876 258.744C170.193 259.941 180.726 280.291 180.726 280.291C180.726 280.291 178.093 149.81 176.776 147.414V147.416Z" fill="black" fill-opacity="0.74843" stroke="black" stroke-width="1.33333"/>
</g>
<defs>
<radialGradient id="paint0_radial_1152_214" cx="0" cy="0" r="1" gradientUnits="userSpaceOnUse" gradientTransform="translate(4.28883 200.569) scale(3.45255 29.181)">
<stop stop-color="#F8CE00"/>
<stop offset="1" stop-color="#B79700"/>
</radialGradient>
<radialGradient id="paint1_radial_1152_214" cx="0" cy="0" r="1" gradientUnits="userSpaceOnUse" gradientTransform="translate(196.564 198.035) rotate(180) scale(3.45255 29.181)">
<stop stop-color="#F8CE00"/>
<stop offset="1" stop-color="#B79700"/>
</radialGradient>
<radialGradient id="paint2_radial_1152_214" cx="0" cy="0" r="1" gradientUnits="userSpaceOnUse" gradientTransform="translate(99.6584 150.739) scale(76.4805 34.3036)">
<stop stop-color="#F8CE00"/>
<stop offset="1" stop-color="#B79700"/>
</radialGradient>
<radialGradient id="paint3_radial_1152_214" cx="0" cy="0" r="1" gradientUnits="userSpaceOnUse" gradientTransform="translate(94.6464 314.847) scale(75.1988 54.8334)">
<stop stop-color="#F8CE00"/>
<stop offset="1" stop-color="#B79700"/>
</radialGradient>
<clipPath id="clip0_1152_214">
<rect width="200" height="400" fill="white"/>
</clipPath>
</defs>
</svg>
