<svg width="100%" height="100%" viewBox="0 0 200 400" fill="none" xmlns="http://www.w3.org/2000/svg">
<g clip-path="url(#clip0_1152_177)">
<path d="M19.7725 315.719H13.8618C11.2193 315.719 9.07715 317.667 9.07715 320.07V351.247C9.07715 353.65 11.2193 355.598 13.8618 355.598H19.7725C22.415 355.598 24.5572 353.65 24.5572 351.247V320.07C24.5572 317.667 22.415 315.719 19.7725 315.719Z" fill="#60585A"/>
<path d="M184.188 310.652H178.278C175.635 310.652 173.493 312.6 173.493 315.002V346.18C173.493 348.583 175.635 350.53 178.278 350.53H184.188C186.831 350.53 188.973 348.583 188.973 346.18V315.002C188.973 312.6 186.831 310.652 184.188 310.652Z" fill="#60585A"/>
<path d="M114.83 33.9161C117.88 34.0787 121.037 34.1127 124.063 33.7437C126.055 33.383 130.458 31.8349 128.33 29.3468C125.406 26.7918 120.231 27.1835 116.536 27.4703L116.25 24.4329C121.338 24.0529 127.488 23.9302 131.209 27.6401C134.543 32.4647 129.327 35.9501 124.507 36.77C121.285 37.1415 118.062 36.9469 114.831 37.1187V33.9161H114.83Z" fill="#4A00AD"/>
<path d="M114.83 17.893C117.88 17.7304 121.037 17.6964 124.063 18.0653C126.055 18.4261 130.458 19.9742 128.33 22.4623C125.406 25.0173 120.231 24.6256 116.536 24.3387L116.25 27.3761C121.338 27.7562 127.488 27.8788 131.209 24.169C134.543 19.3443 129.327 15.859 124.507 15.0391C121.285 14.6676 118.062 14.8622 114.831 14.6904V17.893H114.83Z" fill="#4A00AD"/>
<path d="M102.929 24.85C104.079 24.9498 105.262 24.9065 106.416 24.9121C107.392 24.9149 110.669 25.3694 111.277 24.4067C111.492 23.7205 111.127 22.9352 110.493 22.5519C108.955 21.8336 106.88 22.1993 105.231 22.2712C103.213 22.3592 100.477 22.5617 99.8604 20.3292C99.6692 18.5065 100.918 16.7585 102.477 15.7009C104.538 14.5483 106.885 14.7613 109.184 15.0244C110.554 15.1899 111.919 15.3805 113.292 15.5208L113.039 17.4475C111.662 17.2981 110.294 17.0908 108.919 16.9253C107.237 16.7383 105.308 16.4541 103.768 17.2681C102.882 17.837 102.027 18.8862 102.021 19.9145C102.013 20.6803 104.643 20.3781 105.122 20.3564C107.347 20.2482 109.766 19.9215 111.785 20.968C113.411 22.0765 114.13 24.1952 112.868 25.7742C111.221 27.1969 108.51 26.8297 106.416 26.836C105.262 26.8409 104.079 26.7976 102.929 26.8975V24.85Z" fill="#4A00AD"/>
<path d="M101.136 26.8442C99.8009 26.7215 98.4187 26.77 97.0794 26.7635C94.5527 26.7554 92.0261 26.7727 89.4988 26.7818C88.9926 26.7845 88.4857 26.7877 87.9795 26.8012V25.0639C88.4857 25.0779 88.9926 25.0811 89.4988 25.0838C92.0261 25.093 94.5527 25.1102 97.0794 25.1021C98.4187 25.0957 99.8009 25.1441 101.136 25.0214V26.8442Z" fill="#4A00AD"/>
<path d="M93.6919 25.5703C93.7952 24.9017 93.7432 24.1969 93.7484 23.5256C93.7556 22.1862 93.7562 20.8467 93.7445 19.5068C93.7367 18.6195 93.7263 17.7323 93.7237 16.8451C93.7231 16.3143 93.725 15.7829 93.7263 15.2521H95.8845C95.8858 15.7829 95.8878 16.3143 95.8865 16.8451C95.8845 17.7323 95.8741 18.6195 95.8663 19.5068C95.8546 20.8467 95.8546 22.1862 95.8618 23.5256C95.8676 24.1969 95.815 24.9017 95.9189 25.5703H93.6919Z" fill="#4A00AD"/>
<path d="M85.3781 26.4819C85.5001 25.6174 85.4416 24.7073 85.4528 23.8383C85.4784 21.6542 85.4812 19.4697 85.4572 17.2851C85.4478 16.5701 85.4361 15.8546 85.4205 15.1396H87.2457C87.2307 15.8546 87.2184 16.5701 87.2089 17.2851C87.185 19.4697 87.1883 21.6542 87.2134 23.8383C87.2251 24.7073 87.166 25.6174 87.2881 26.4819H85.3781Z" fill="#4A00AD"/>
<path d="M86.5205 27.0039C85.7347 26.9249 84.9249 26.9664 84.1351 26.9467C82.4481 26.8767 80.9644 26.4293 80.7432 24.7114C80.6924 22.991 81.7308 21.9593 83.5683 21.6406C84.4305 21.5418 85.2732 21.5717 86.1348 21.6553L85.9381 23.2601C85.2576 23.1907 84.5882 23.1588 83.9066 23.2343C83.0121 23.3843 82.559 23.6802 82.5662 24.5396C82.6353 25.3175 83.4563 25.2937 84.1797 25.3251C84.9505 25.3393 85.7519 25.3661 86.5205 25.2881V27.0039Z" fill="#4A00AD"/>
<path d="M85.7681 22.4077C85.0864 22.3388 84.3792 22.3712 83.6948 22.3662C82.2245 22.3555 80.5754 22.4594 79.3542 21.5883C78.3215 20.5951 78.6771 19.3729 79.0639 18.1952C79.3269 17.3981 79.551 16.6152 79.5794 15.7796C79.5811 15.6164 79.5794 15.4547 79.575 15.2921L81.4169 15.2495C81.4225 15.4436 81.4242 15.6372 81.422 15.8313C81.3874 16.8098 81.1288 17.728 80.8189 18.6604C80.6785 19.0881 80.2878 19.8796 80.5481 20.3276C81.17 20.9701 82.8738 20.7396 83.6948 20.7335C84.3792 20.7284 85.0864 20.7608 85.7681 20.6919V22.4077Z" fill="#4A00AD"/>
<path d="M85.9615 26.999H87.2729V25.4659H85.9615V26.999Z" fill="#4A00AD"/>
<path fill-rule="evenodd" clip-rule="evenodd" d="M65.3529 20.9538C65.3529 17.4279 68.2488 14.5659 71.8168 14.5659C75.3849 14.5659 78.2803 17.4279 78.2803 20.9538C78.2803 24.4802 75.3849 27.3418 71.8168 27.3418C68.2488 27.3418 65.3529 24.4802 65.3529 20.9538ZM67.4139 21.117C67.4139 18.7156 69.3869 16.7661 71.8168 16.7661C74.2474 16.7661 76.2198 18.7156 76.2198 21.117C76.2198 23.5195 74.2474 25.4684 71.8168 25.4684C69.3869 25.4684 67.4139 23.5195 67.4139 21.117Z" fill="#4A00AD"/>
<path d="M188.369 49.6797H182.458C179.816 49.6797 177.673 51.6274 177.673 54.03V85.2078C177.673 87.6104 179.816 89.5581 182.458 89.5581H188.369C191.011 89.5581 193.153 87.6104 193.153 85.2078V54.03C193.153 51.6274 191.011 49.6797 188.369 49.6797Z" fill="#60585A"/>
<path d="M15.5069 51.2417H9.5962C6.9537 51.2417 4.81152 53.1894 4.81152 55.592V86.7698C4.81152 89.1724 6.9537 91.1201 9.5962 91.1201H15.5069C18.1494 91.1201 20.2915 89.1724 20.2915 86.7698V55.592C20.2915 53.1894 18.1494 51.2417 15.5069 51.2417Z" fill="#60585A"/>
<path fill-rule="evenodd" clip-rule="evenodd" d="M99.6128 396.767C36.5948 397.964 26.9362 387.686 17.6231 385.993C8.31278 366.344 6.54491 200.663 12.1305 187.118C16.3067 156.44 9.37952 151.36 7.28896 114.386C3.30958 71.2048 12.7592 95.2162 4.81494 51.3067C16.8857 5.59066 -5.85025 4.65978 98.7372 0.313477C194.716 1.53016 181.201 5.59117 193.267 51.3067C185.323 95.2167 194.772 71.2053 190.793 114.386C188.702 151.358 181.775 156.438 185.951 187.118C191.537 200.662 189.769 366.342 180.459 385.993C165.883 393.672 127.256 396.767 99.6061 396.767H99.6128Z" fill="#22F200" stroke="black" stroke-width="1.33333"/>
<path fill-rule="evenodd" clip-rule="evenodd" d="M23.1498 142.84L35.1515 184.617C35.1515 184.617 35.1515 262.948 33.4372 264.251C31.7223 265.556 18.0068 287.749 18.0068 287.749C18.0068 287.749 21.4354 145.452 23.1504 142.837L23.1498 142.84Z" fill="url(#paint0_radial_1152_177)"/>
<path fill-rule="evenodd" clip-rule="evenodd" d="M177.701 140.306L165.699 182.083C165.699 182.083 165.699 260.415 167.413 261.717C169.128 263.022 182.844 285.216 182.844 285.216C182.844 285.216 179.415 142.918 177.7 140.303L177.701 140.306Z" fill="url(#paint1_radial_1152_177)"/>
<path fill-rule="evenodd" clip-rule="evenodd" d="M20.7318 22.5605C14.2294 32.0198 14.7037 121.993 25.1074 129.087C35.1562 121.562 93.37 114.571 104.439 115.221C115.746 114.465 160.002 119.303 173.598 126.722C177.264 127.802 184.593 22.562 174.189 15.4677C141.674 7.18552 33.7344 7.18553 20.7318 22.557V22.5605Z" fill="#22F200" stroke="black" stroke-opacity="0.45912" stroke-width="1.33333"/>
<path fill-rule="evenodd" clip-rule="evenodd" d="M23.2765 130.43C23.2765 130.43 59.7988 116.8 100.546 116.451C137.237 116.127 153.807 121.328 176.126 129.13C173.421 153.836 170.715 177.241 163.952 185.043C101.731 170.738 97.6736 170.738 35.4526 185.043C34.0983 177.244 21.9244 131.729 23.2771 130.432L23.2765 130.43Z" fill="url(#paint2_radial_1152_177)"/>
<path fill-rule="evenodd" clip-rule="evenodd" d="M25.3645 131.854C25.3645 131.854 60.9131 119.306 100.577 118.985C136.29 118.686 152.419 123.474 174.145 130.657C171.512 153.402 168.879 174.948 162.296 182.131C101.73 168.963 97.7842 168.964 37.2185 182.132C35.9021 174.949 24.0526 133.051 25.369 131.854L25.3645 131.854Z" fill="black" fill-opacity="0.7044" stroke="black" stroke-width="1.33333"/>
<path fill-rule="evenodd" clip-rule="evenodd" d="M42.1887 269.297C35.295 299.381 29.7808 357.044 29.7808 357.044C40.8104 365.818 97.3354 369.579 98.7176 369.579C102.854 369.579 159.378 365.818 169.031 353.283C169.031 345.762 163.516 291.861 158.001 268.044C109.748 274.312 44.9514 271.805 42.1926 269.298L42.1887 269.297Z" fill="url(#paint3_radial_1152_177)"/>
<path fill-rule="evenodd" clip-rule="evenodd" d="M45.1137 271.911C38.5304 300.641 33.2642 355.706 33.2642 355.706C43.7973 364.085 97.7758 367.677 99.0967 367.677C103.047 367.677 157.026 364.085 166.245 352.115C166.245 344.932 160.978 293.459 155.711 270.712C109.63 276.697 47.7499 274.303 45.1137 271.909V271.911Z" fill="black" fill-opacity="0.78616" stroke="black" stroke-width="1.33333"/>
<path fill-rule="evenodd" clip-rule="evenodd" d="M179.406 141.426L195.206 142.623C195.206 142.623 203.105 149.805 197.839 153.396C192.572 156.988 179.406 152.2 179.406 152.2V141.426Z" fill="#22F200" stroke="black" stroke-opacity="0.55346" stroke-width="1.25"/>
<path fill-rule="evenodd" clip-rule="evenodd" d="M20.5912 143.823L4.79179 145.02C4.79179 145.02 -3.10789 152.202 2.15838 155.793C7.4252 159.385 20.5912 154.597 20.5912 154.597V143.823Z" fill="#22F200" stroke="black" stroke-opacity="0.54717" stroke-width="1.33333"/>
<path fill-rule="evenodd" clip-rule="evenodd" d="M29.3056 8.62748C24.2768 9.42459 18.5379 18.2545 21.1774 19.7261C27.4647 16.8433 39.7518 12.8821 51.822 11.7784C54.2107 10.6129 57.4722 7.03734 57.5949 6.24023C49.2984 5.81103 34.7915 7.64644 29.3056 8.62748Z" fill="#2E87CF" fill-opacity="0.56604" stroke="black" stroke-opacity="0.25157" stroke-width="1.44267"/>
<path fill-rule="evenodd" clip-rule="evenodd" d="M166.476 6.13909C171.505 6.93624 177.244 13.5542 174.605 15.0258C168.318 12.1431 156.03 11.2226 143.96 10.1187C141.572 8.95322 138.312 4.54858 138.186 3.75148C146.484 3.32218 160.991 5.15799 166.476 6.13909Z" fill="#2E87CF" fill-opacity="0.56604" stroke="black" stroke-opacity="0.25157" stroke-width="1.44267"/>
<path d="M62.583 5.26018C83.2591 1.94256 118.226 2.21873 133.125 3.87729" stroke="black" stroke-opacity="0.37107" stroke-width="1.33333"/>
<path d="M62.583 6.64251C83.2591 3.32488 118.226 3.60106 133.125 5.25962" stroke="black" stroke-opacity="0.37107" stroke-width="1.33333"/>
<path d="M62.583 8.30071C83.2591 4.98309 118.226 5.25926 133.125 6.91782" stroke="black" stroke-opacity="0.37107" stroke-width="1.33333"/>
<path d="M62.583 10.2364C83.2591 7.19544 117.313 7.74778 131.91 8.57681" stroke="black" stroke-opacity="0.37107" stroke-width="1.33333"/>
<path fill-rule="evenodd" clip-rule="evenodd" d="M24.048 149.808L33.2641 188.115C33.2641 188.115 33.2641 259.94 31.9477 261.136C30.6307 262.333 20.0981 282.683 20.0981 282.683C20.0981 282.683 22.731 152.203 24.048 149.806V149.808Z" fill="black" fill-opacity="0.68554" stroke="black" stroke-width="1.33333"/>
<path d="M20.2593 157.358C18.959 170.364 11.9043 382.072 22.8598 382.016C61.7931 395.428 146.377 393.967 178.089 378.468C187.859 378.432 181.99 166.813 180.69 153.811" stroke="black" stroke-width="1.33333"/>
<path fill-rule="evenodd" clip-rule="evenodd" d="M176.776 147.416L167.56 185.723C167.56 185.723 167.56 257.548 168.876 258.744C170.193 259.941 180.726 280.291 180.726 280.291C180.726 280.291 178.093 149.81 176.776 147.414V147.416Z" fill="black" fill-opacity="0.74843" stroke="black" stroke-width="1.33333"/>
</g>
<defs>
<radialGradient id="paint0_radial_1152_177" cx="0" cy="0" r="1" gradientUnits="userSpaceOnUse" gradientTransform="translate(4.28859 200.569) scale(3.45255 29.181)">
<stop stop-color="#F8CE00"/>
<stop offset="1" stop-color="#B79700"/>
</radialGradient>
<radialGradient id="paint1_radial_1152_177" cx="0" cy="0" r="1" gradientUnits="userSpaceOnUse" gradientTransform="translate(196.564 198.035) rotate(180) scale(3.45255 29.181)">
<stop stop-color="#F8CE00"/>
<stop offset="1" stop-color="#B79700"/>
</radialGradient>
<radialGradient id="paint2_radial_1152_177" cx="0" cy="0" r="1" gradientUnits="userSpaceOnUse" gradientTransform="translate(99.6584 150.739) scale(76.4805 34.3036)">
<stop stop-color="#F8CE00"/>
<stop offset="1" stop-color="#B79700"/>
</radialGradient>
<radialGradient id="paint3_radial_1152_177" cx="0" cy="0" r="1" gradientUnits="userSpaceOnUse" gradientTransform="translate(94.6464 314.847) scale(75.1988 54.8334)">
<stop stop-color="#F8CE00"/>
<stop offset="1" stop-color="#B79700"/>
</radialGradient>
<clipPath id="clip0_1152_177">
<rect width="200" height="400" fill="white"/>
</clipPath>
</defs>
</svg>
