<svg width="100%" height="100%" viewBox="0 0 60 60" fill="none" xmlns="http://www.w3.org/2000/svg">
<g clip-path="url(#clip0_365_5)">
<path d="M50.1982 46.4685L40.2315 31.1588C39.5107 30.0496 38.2806 29.5517 37.048 29.5517C36.793 29.5517 36.265 29.5578 35.6942 29.5657C35.6498 29.491 35.6033 29.4169 35.5282 29.3664L33.0179 27.6993C32.7283 27.5071 32.3522 27.5173 32.0745 27.7216L29.9983 29.2538L27.9208 27.7216C27.6409 27.5173 27.267 27.5071 26.9751 27.6993L24.4693 29.3664C24.3985 29.4126 24.3535 29.4775 24.3123 29.5454C23.7208 29.5492 23.1697 29.5524 22.9375 29.5524C21.7105 29.5524 20.4861 30.057 19.7697 31.1588L9.80291 46.4685C8.74326 48.0938 9.17215 50.2671 10.7702 51.3677L12.9826 52.8927C14.3163 49.7167 16.519 47.0011 19.2854 45.0184L19.8559 44.141V44.614C21.8605 43.2896 24.1362 42.3505 26.5794 41.8903C25.8535 40.2791 25.2443 38.3598 24.7975 36.5508C24.277 34.4399 23.9717 32.4836 23.9717 31.3757C23.9717 30.9652 24.0247 30.5698 24.1052 30.1841L25.9183 36.1837C26.0121 36.4979 26.2838 36.7248 26.6093 36.7631C26.6421 36.7668 26.6741 36.7688 26.7053 36.7688C26.9951 36.7688 27.2691 36.6157 27.4181 36.3596L28.8315 33.9251L29.2292 34.3214C28.2775 35.5803 27.9037 39.1234 27.7585 41.71C28.4928 41.6201 29.2366 41.5603 29.9947 41.5603C30.7543 41.5603 31.5005 41.6212 32.237 41.711C32.0917 39.1245 31.7179 35.5814 30.764 34.3214L31.1616 33.9227L32.5795 36.3595C32.7284 36.6155 32.9987 36.7687 33.2906 36.7687C33.3218 36.7687 33.3546 36.7667 33.386 36.763C33.7113 36.7246 33.9831 36.4977 34.0793 36.1836L35.8912 30.1966C35.9689 30.5783 36.02 30.97 36.02 31.3756C36.02 33.4344 34.9879 38.4001 33.4136 41.8901C35.8613 42.3517 38.1407 43.2932 40.1455 44.6208V44.1432L40.7255 45.0321C43.4823 47.0158 45.6791 49.7269 47.0091 52.8975L49.2312 51.3677C50.8287 50.2671 51.2555 48.0938 50.1982 46.4685ZM26.9459 33.8946L25.8908 30.3996L27.4084 29.3902L28.9179 30.5035L26.9459 33.8946ZM33.0492 33.8946L31.0794 30.5034L32.5874 29.3901L34.1066 30.3995L33.0492 33.8946Z" fill="#0DC0A0"/>
<path d="M24.8333 52.0295L26.6347 54.3998C27.6332 53.7978 28.7905 53.4679 29.9945 53.4679C31.2009 53.4679 32.3604 53.7977 33.359 54.4007L35.1604 52.0287C33.7559 50.7058 31.9329 49.9804 29.9969 49.9804C28.0599 49.9804 26.2347 50.7069 24.8333 52.0295Z" fill="#0DC0A0"/>
<path d="M21.6454 19.671C21.7065 22.7894 23.478 25.4612 26.0592 26.8485C27.2379 27.4831 28.5672 27.8756 30.0006 27.8756C31.4318 27.8756 32.7572 27.4838 33.9346 26.8505C36.5149 25.4648 38.2931 22.7936 38.3521 19.674C36.2231 21.1532 33.2197 22.1146 30.0006 22.1146C26.7814 22.1146 23.7773 21.1532 21.6454 19.671Z" fill="#0DC0A0"/>
<path d="M21.4062 12.2664L21.3787 14.7416C21.3832 16.7006 25.2405 19.2522 30.0004 19.2522C34.7603 19.2522 38.6141 16.7006 38.6162 14.7416L38.5908 12.2677C39.8433 11.9416 40.8152 11.4571 41.4376 10.7608C41.9253 10.2176 42.2054 9.54774 42.2054 8.7048C42.2056 4.88578 36.736 0 30.0005 0C23.2591 0 17.7955 4.88578 17.7955 8.7048C17.7955 9.54774 18.0739 10.2165 18.5594 10.7608C19.1821 11.4569 20.1552 11.9414 21.4062 12.2664Z" fill="#0DC0A0"/>
<path d="M29.9946 43.7243C21.0206 43.7243 13.7191 51.0261 13.7191 60H17.8193C17.8193 59.9942 17.8193 59.9861 17.8193 59.9803V59.9765C17.9525 59.1733 18.6414 58.5881 19.4501 58.5881C19.4642 58.5881 19.4799 58.5893 19.4955 58.5893L25.8297 58.7536C25.7105 59.1513 25.6278 59.5644 25.6278 60.0002H34.365C34.365 59.5644 34.283 59.1513 34.1616 58.7536L40.4979 58.5893C40.5113 58.5893 40.5248 58.5881 40.5412 58.5881C41.3491 58.5881 42.041 59.1733 42.1734 59.9765V59.9803C42.1734 59.9861 42.1734 59.9942 42.1734 60H46.2699C46.27 51.0261 38.9708 43.7243 29.9946 43.7243ZM37.0205 53.1552L33.644 57.6041C32.8614 56.4174 31.5217 55.6313 29.9944 55.6313C28.4709 55.6313 27.1297 56.4167 26.3485 57.6034L22.9729 53.1565C22.3973 52.3978 22.4695 51.3284 23.1435 50.6545C25.0364 48.7627 27.5155 47.8166 29.9966 47.8166C32.4772 47.8166 34.956 48.7627 36.852 50.6561C37.5253 51.3295 37.5962 52.3968 37.0205 53.1552Z" fill="#0DC0A0"/>
</g>
<defs>
<clipPath id="clip0_365_5">
<rect width="60" height="60" fill="white"/>
</clipPath>
</defs>
</svg>
