<svg width="100%" height="100%" viewBox="0 0 50 50" fill="none" xmlns="http://www.w3.org/2000/svg">
<path d="M14.8218 0H12.1687C11.9245 0 11.6343 0.385952 11.5213 0.862024L0.0241544 49.1393C-0.0892071 49.6155 0.207774 50.0007 0.687944 50L5.90033 49.9917C6.33723 50.0311 6.74444 49.6848 6.91558 49.1283L15.1176 0.861905C15.1982 0.385952 15.0661 0 14.8218 0V0Z" fill="#1BD20B"/>
<path d="M18.3533 0C18.1378 0 17.9223 0.380952 17.862 0.857143L12.0775 49.119C12.0172 49.5952 12.3103 49.9881 12.7413 49.9881L21.724 49.9643C21.6027 49.6713 21.543 49.3373 21.5516 49L21.6637 41.4048C21.7113 40.1898 22.4556 39.252 23.3361 39.2976L24.9912 39.2857L26.6636 39.2976C27.5441 39.252 28.2884 40.1898 28.336 41.4048L28.4481 49C28.4567 49.3373 28.397 49.6713 28.2757 49.9643L37.2584 49.9881C37.6894 49.9881 37.9825 49.5952 37.9222 49.119L32.1377 0.857143C32.0774 0.380952 31.8619 0 31.6464 0H27.6378L27.7671 7.46428C27.7789 8.02034 27.63 8.56005 27.3533 8.96428C27.1039 9.31801 26.7625 9.51945 26.405 9.52381H23.5947C23.2372 9.51945 22.8958 9.31801 22.6464 8.96428C22.3697 8.56005 22.2208 8.02034 22.2326 7.46428L22.3619 0L18.3533 0ZM28.2154 33.6667C28.2241 34.1821 28.081 34.6805 27.8188 35.0476C27.4979 35.4777 27.0677 35.7171 26.6205 35.7143H23.3792C22.932 35.7171 22.5018 35.4777 22.1809 35.0476C21.9187 34.6805 21.7756 34.1821 21.7844 33.6667L21.8964 27C21.9382 25.8643 22.6249 24.9793 23.4481 25H26.5516C27.3749 24.9793 28.0616 25.8643 28.1033 27L28.2154 33.6667ZM23.5602 11.9048H26.4395C27.2072 11.885 27.8461 12.7145 27.8791 13.7738L27.9912 19.4881C28.0019 19.9819 27.8647 20.4599 27.6119 20.8095C27.3189 21.2115 26.9214 21.4345 26.5085 21.4286H23.4912C23.0783 21.4345 22.6808 21.2115 22.3878 20.8095C22.135 20.4599 21.9978 19.9819 22.0085 19.4881L22.1206 13.7738C22.1536 12.7145 22.7925 11.885 23.5602 11.9048Z" fill="#1BD20B"/>
<path d="M44.0998 49.9917L49.3122 50C49.792 50.0007 50.089 49.6154 49.976 49.1393L38.4785 0.862024C38.3651 0.385833 38.0752 0 37.831 0H35.1779C34.9337 0 34.8013 0.385952 34.8821 0.861905L43.0846 49.1283C43.2557 49.6848 43.663 50.0311 44.0998 49.9917V49.9917Z" fill="#1BD20B"/>
</svg>
