<svg width="15" height="15" viewBox="0 0 15 15" fill="none" xmlns="http://www.w3.org/2000/svg">
<path d="M14.6546 11.0206L13.6795 9.55588C13.4748 9.22941 13.2895 8.61176 13.2895 8.25V6.01765C13.2895 3.94412 11.9439 2.15294 10.0035 1.31471C9.49649 0.502941 8.56043 0 7.48786 0C6.42504 0 5.46952 0.520588 4.96249 1.34118C3.06111 2.19706 1.74477 3.97059 1.74477 6.01765V8.25C1.74477 8.61176 1.55951 9.22941 1.35475 9.54706L0.369935 11.0206C-0.0200904 11.6118 -0.107846 12.2647 0.13592 12.8647C0.369935 13.4559 0.925721 13.9147 1.64727 14.1353C3.53889 14.7176 5.52802 15 7.51711 15C9.50624 15 11.4954 14.7176 13.387 14.1441C14.0695 13.9412 14.5961 13.4735 14.8496 12.8647C15.1031 12.2559 15.0349 11.5853 14.6546 11.0206Z" fill="#979797"/>
</svg>
