<svg width="20" height="20" viewBox="0 0 20 20" fill="none" xmlns="http://www.w3.org/2000/svg">
<path d="M19.9276 11.2638C19.7776 8.73813 19.5304 8.24625 19.4371 8.06125C19.2225 7.63375 18.8791 7.35437 18.5157 7.06125C18.4952 7.04495 18.4774 7.02172 18.4639 6.99338C18.4503 6.96503 18.4414 6.93236 18.4377 6.89794C18.434 6.86351 18.4357 6.82828 18.4427 6.79501C18.4496 6.76175 18.4617 6.73136 18.4778 6.70625C18.5451 6.60389 18.5968 6.48089 18.6294 6.34571C18.662 6.21053 18.6747 6.06636 18.6666 5.92313C18.6509 5.66913 18.5721 5.43325 18.4459 5.26226C18.3197 5.09127 18.1553 4.99766 17.9852 5H17.3351C17.3072 5.00025 17.2794 5.00296 17.2518 5.00813C17.2328 4.99578 17.2131 4.98595 17.193 4.97875C16.808 3.75813 16.2808 2.08687 15.1881 1.27125C13.5675 0.0624998 10.582 0 9.99862 0C9.4152 0 6.42976 0.0624999 4.81119 1.26937C3.71853 2.085 3.19137 3.75625 2.80631 4.97688L2.80298 4.98687C2.78377 4.99093 2.76491 4.99805 2.74672 5.00813C2.71907 5.00296 2.69124 5.00025 2.66337 5H2.01203C1.84196 4.99766 1.67751 5.09127 1.5513 5.26226C1.4251 5.43325 1.34635 5.66913 1.33068 5.92313C1.32327 6.06603 1.33653 6.20964 1.36955 6.34415C1.40256 6.47866 1.45455 6.6009 1.52195 6.7025C1.53808 6.72761 1.5501 6.758 1.55705 6.79126C1.56401 6.82453 1.56572 6.85976 1.56204 6.89419C1.55836 6.92861 1.5494 6.96128 1.53586 6.98963C1.52233 7.01797 1.50458 7.0412 1.48403 7.0575C1.12065 7.3525 0.775595 7.63187 0.562647 8.0575C0.4693 8.245 0.222597 8.73438 0.0721584 11.26C-0.0111872 12.6813 -0.023689 14.1525 0.0417372 15.1C0.178841 17.0688 0.435962 18.2587 0.446797 18.3081C0.486252 18.4878 0.55888 18.647 0.656248 18.7673C0.753616 18.8875 0.871731 18.9639 0.996878 18.9875V19C0.996878 19.2652 1.06713 19.5196 1.19217 19.7071C1.31721 19.8946 1.48681 20 1.66364 20H3.99732C4.17416 20 4.34375 19.8946 4.46879 19.7071C4.59384 19.5196 4.66408 19.2652 4.66408 19C5.02289 19 5.27251 18.9038 5.53713 18.8013C5.91918 18.6469 6.30969 18.5442 6.70397 18.4944C7.9754 18.3125 9.23976 18.25 9.99862 18.25C10.7421 18.25 12.0623 18.3125 13.3358 18.4944C13.7316 18.5443 14.1237 18.6474 14.5072 18.8025C14.7606 18.9 15.001 18.99 15.334 18.9994C15.334 19.2646 15.4042 19.5189 15.5293 19.7065C15.6543 19.894 15.8239 19.9994 16.0008 19.9994H18.3344C18.5113 19.9994 18.6809 19.894 18.8059 19.7065C18.9309 19.5189 19.0012 19.2646 19.0012 18.9994V18.9919C19.1266 18.9687 19.2451 18.8925 19.3428 18.7723C19.4405 18.652 19.5134 18.4925 19.5529 18.3125C19.5638 18.2631 19.8209 17.0731 19.958 15.1044C20.0234 14.1563 20.0118 12.6875 19.9276 11.2638ZM4.01149 5.83187C4.34487 4.76937 4.72618 3.56688 5.40503 3.06C6.386 2.3275 8.41922 1.9975 9.99862 1.9975C11.578 1.9975 13.6112 2.325 14.5922 3.06C15.2711 3.56688 15.6507 4.77 15.9857 5.83187L16.0274 5.9675C16.0518 6.04471 16.0626 6.13 16.0587 6.21522C16.0549 6.30045 16.0365 6.38278 16.0054 6.45435C15.9743 6.52593 15.9315 6.58436 15.8811 6.62408C15.8307 6.6638 15.7743 6.68348 15.7174 6.68125C14.3326 6.625 11.4155 6.445 9.99862 6.445C8.58174 6.445 5.66465 6.62938 4.27778 6.68563C4.22084 6.68786 4.16447 6.66818 4.11404 6.62846C4.06362 6.58874 4.02082 6.5303 3.98973 6.45873C3.95864 6.38715 3.94029 6.30483 3.93644 6.2196C3.93259 6.13437 3.94336 6.04909 3.96773 5.97188C3.98232 5.92563 3.99774 5.87875 4.01149 5.83187ZM4.50864 10.8088C3.79179 10.9381 3.07035 11.002 2.34833 11C1.90659 11 1.45111 10.8125 1.36652 10.2225C1.30859 9.82562 1.31484 9.6025 1.3461 9.37813C1.37235 9.1875 1.41402 9.04875 1.62239 9C2.16413 8.875 2.46709 9.03187 3.35389 9.42375C3.94189 9.68312 4.36612 10.0287 4.60783 10.3025C4.72909 10.4375 4.6645 10.79 4.50864 10.8088ZM13.7342 15.9338C13.1858 16.0275 12.0889 15.9931 10.0111 15.9931C7.93331 15.9931 6.8369 16.0275 6.28849 15.9338C5.72257 15.8394 5.00122 15.0369 5.49379 14.3219C5.82175 13.8506 6.58687 13.4981 7.60577 13.3C8.62467 13.1019 9.05598 13 10.007 13C10.9579 13 11.3455 13.0625 12.4081 13.3006C13.4708 13.5387 14.2738 13.8956 14.5201 14.3225C14.9693 15.0875 14.2997 15.8344 13.7342 15.9375V15.9338ZM18.6307 10.2219C18.5474 10.8144 18.089 10.9994 17.6489 10.9994C16.9131 10.9996 16.1778 10.9358 15.4469 10.8081C15.3194 10.79 15.2602 10.4544 15.3894 10.3019C15.6274 10.0212 16.0562 9.6825 16.6433 9.42313C17.5301 9.03125 18.0415 8.87438 18.4807 9.005C18.5878 9.03688 18.6445 9.20938 18.6511 9.3175C18.6805 9.61857 18.6736 9.9251 18.6307 10.2225V10.2219Z" fill="#979797"/>
</svg>
