<svg width="20" height="20" viewBox="0 0 20 20" fill="none" xmlns="http://www.w3.org/2000/svg">
<path fill-rule="evenodd" clip-rule="evenodd" d="M10 18.9997L10.885 19.7057C10.7689 19.799 10.6308 19.873 10.4789 19.9235C10.3269 19.974 10.1639 20 9.99938 20C9.83481 20 9.67186 19.974 9.51988 19.9235C9.3679 19.873 9.22989 19.799 9.11375 19.7057L9.10625 19.6987L9.085 19.6817L9.0075 19.6187C8.56686 19.2556 8.13347 18.8869 7.7075 18.5127C6.638 17.5752 5.61391 16.6052 4.6375 15.6048C3.5225 14.4548 2.3825 13.1548 1.51625 11.8708C0.66875 10.6118 0 9.24787 0 7.99988C0 3.46095 4.49 0 10 0C15.51 0 20 3.46095 20 7.99988C20 9.24787 19.3313 10.6118 18.4838 11.8698C17.6175 13.1558 16.4788 14.4548 15.3625 15.6048C13.9967 17.0044 12.538 18.3443 10.9925 19.6187L10.915 19.6817L10.8938 19.6987L10.8862 19.7047L10 18.9997ZM10 10.9998C10.9946 10.9998 11.9484 10.6838 12.6517 10.1212C13.3549 9.55857 13.75 8.79552 13.75 7.99988C13.75 7.20425 13.3549 6.4412 12.6517 5.87859C11.9484 5.31599 10.9946 4.99993 10 4.99993C9.00544 4.99993 8.05161 5.31599 7.34835 5.87859C6.64509 6.4412 6.25 7.20425 6.25 7.99988C6.25 8.79552 6.64509 9.55857 7.34835 10.1212C8.05161 10.6838 9.00544 10.9998 10 10.9998Z" fill="#979797"/>
</svg>
