<svg width="20" height="20" viewBox="0 0 20 20" fill="none" xmlns="http://www.w3.org/2000/svg">
<path d="M14.6586 13.8686C13.7985 13.5772 12.5441 12.7265 12.5441 12.1968C12.5441 11.8459 12.5441 11.4076 12.5441 10.8067C13.0412 10.3057 13.4192 9.28857 13.6439 8.1356C14.1679 7.96615 14.4673 7.69494 14.8414 6.50834C15.239 5.24436 14.2426 5.28732 14.2426 5.28732C15.0485 2.87041 13.9876 0.598972 12.2105 0.765729C10.9848 -1.17685 6.8793 1.20948 5.59293 1.04315C5.59293 1.70936 5.89917 2.20885 5.89917 2.20885C5.45201 2.97799 5.62449 4.51162 5.75006 5.28732C5.67744 5.28615 4.77636 5.29467 5.15858 6.50834C5.53269 7.6949 5.83208 7.96615 6.35612 8.1356C6.58035 9.28857 6.9583 10.3057 7.45586 10.8067C7.45586 11.4076 7.45586 11.8459 7.45586 12.1968C7.45586 12.7265 6.1234 13.6186 5.34141 13.8686C3.72573 14.3839 -0.244421 15.8661 0.011844 18.6424C0.0732907 19.3086 4.11735 20 9.99997 20C15.8822 20 19.9267 19.3086 19.9882 18.6424C20.2444 15.8634 16.264 14.4125 14.6586 13.8686Z" fill="#CBCBCB"/>
</svg>
