<svg width="100%" height="100%" viewBox="0 0 100 100" fill="none" xmlns="http://www.w3.org/2000/svg">
<path d="M50 0C32.6545 0 18.4766 14.1779 18.4766 31.5234C18.4766 48.8689 50 100 50 100C50 100 81.5234 48.8688 81.5234 31.3727C81.5232 14.0272 67.3452 0 50 0ZM50 56.1087C35.8221 56.1087 24.359 44.6456 24.359 30.4676C24.359 16.2897 35.8221 4.82658 50 4.82658C64.1779 4.82658 75.6409 16.2897 75.6409 30.4676C75.4901 44.6456 64.027 56.1087 50 56.1087Z" fill="#FF0F00"/>
<path d="M39.0568 34V25.2727H44.3239V26.2102H40.1136V29.1591H44.0511V30.0966H40.1136V33.0625H44.392V34H39.0568ZM53.1491 25.2727V34H52.1264L47.3707 27.1477H47.2855V34H46.2287V25.2727H47.2514L52.0241 32.142H52.1094V25.2727H53.1491ZM57.957 34H55.2638V25.2727H58.0763C58.9229 25.2727 59.6474 25.4474 60.2496 25.7969C60.8519 26.1435 61.3136 26.642 61.6346 27.2926C61.9556 27.9403 62.1161 28.7159 62.1161 29.6193C62.1161 30.5284 61.9542 31.3111 61.6303 31.9673C61.3065 32.6207 60.8349 33.1236 60.2156 33.4759C59.5962 33.8253 58.8434 34 57.957 34ZM56.3207 33.0625H57.8888C58.6104 33.0625 59.2085 32.9233 59.6829 32.6449C60.1573 32.3665 60.511 31.9702 60.744 31.456C60.9769 30.9418 61.0934 30.3295 61.0934 29.6193C61.0934 28.9148 60.9783 28.3082 60.7482 27.7997C60.5181 27.2884 60.1744 26.8963 59.717 26.6236C59.2596 26.348 58.69 26.2102 58.0082 26.2102H56.3207V33.0625Z" fill="#FF0F00"/>
</svg>
