<svg width="100%" height="100%" viewBox="0 0 100 100" fill="none" xmlns="http://www.w3.org/2000/svg">
<g clip-path="url(#clip0_1411_2)">
<path d="M50 0C30.2687 0 14.2207 16.0558 14.2207 35.7793C14.2207 54.3064 41.0018 74.353 48.7447 99.1053C48.911 99.6398 49.4105 100.004 49.9705 100C50.5325 99.9924 51.024 99.6242 51.1827 99.0856C58.6945 73.7244 85.7772 54.3278 85.779 35.7755C85.7772 16.0558 69.7273 0 50 0ZM50 62.9205C34.5299 62.9205 21.9421 50.331 21.9421 34.8627C21.9421 19.3926 34.5299 6.80486 50 6.80486C65.4663 6.80486 78.0558 19.3926 78.0558 34.8627C78.0558 50.331 65.4661 62.9205 50 62.9205Z" fill="#0185FF"/>
<path d="M52.8111 23.8182V50H47.2756V23.8182H52.8111Z" fill="#0185FF"/>
</g>
<defs>
<clipPath id="clip0_1411_2">
<rect width="100" height="100" fill="white"/>
</clipPath>
</defs>
</svg>
