<svg width="100%" height="100%" viewBox="0 0 100 100" fill="none" xmlns="http://www.w3.org/2000/svg">
<g clip-path="url(#clip0_1154_319)">
<path d="M50 0C30.2687 0 14.2207 16.0558 14.2207 35.7793C14.2207 54.3064 41.0018 74.353 48.7447 99.1053C48.911 99.6398 49.4105 100.004 49.9705 100C50.5325 99.9924 51.024 99.6242 51.1827 99.0856C58.6945 73.7244 85.7772 54.3278 85.779 35.7755C85.7772 16.0558 69.7273 0 50 0ZM50 62.9205C34.5299 62.9205 21.9421 50.331 21.9421 34.8627C21.9421 19.3926 34.5299 6.80486 50 6.80486C65.4663 6.80486 78.0558 19.3926 78.0558 34.8627C78.0558 50.331 65.4661 62.9205 50 62.9205Z" fill="#FFD600"/>
<path d="M44.2756 50V23.8182H54.6051C56.5909 23.8182 58.2827 24.1974 59.6804 24.956C61.0781 25.706 62.1435 26.75 62.8764 28.0881C63.6179 29.4176 63.9886 30.9517 63.9886 32.6903C63.9886 34.429 63.6136 35.9631 62.8636 37.2926C62.1136 38.6222 61.027 39.6577 59.6037 40.3991C58.1889 41.1406 56.4759 41.5114 54.4645 41.5114H47.8807V37.0753H53.5696C54.6349 37.0753 55.5128 36.892 56.2031 36.5256C56.902 36.1506 57.4219 35.6349 57.7628 34.9787C58.1122 34.3139 58.2869 33.5511 58.2869 32.6903C58.2869 31.821 58.1122 31.0625 57.7628 30.4148C57.4219 29.7585 56.902 29.2514 56.2031 28.8935C55.5043 28.527 54.6179 28.3438 53.544 28.3438H49.8111V50H44.2756Z" fill="#FFD601"/>
</g>
<defs>
<clipPath id="clip0_1154_319">
<rect width="100" height="100" fill="white"/>
</clipPath>
</defs>
</svg>
