<svg width="100%" height="100%" viewBox="0 0 100 100" fill="none" xmlns="http://www.w3.org/2000/svg">
<path d="M50 0C32.6545 0 18.4766 14.1779 18.4766 31.5234C18.4766 48.8689 50 100 50 100C50 100 81.5234 48.8688 81.5234 31.3727C81.5232 14.0272 67.3452 0 50 0ZM50 56.1087C35.8221 56.1087 24.359 44.6456 24.359 30.4676C24.359 16.2897 35.8221 4.82658 50 4.82658C64.1779 4.82658 75.6409 16.2897 75.6409 30.4676C75.4901 44.6456 64.027 56.1087 50 56.1087Z" fill="#24FF00"/>
<path d="M38.8295 28.4545C38.7784 28.0227 38.571 27.6875 38.2074 27.4489C37.8438 27.2102 37.3977 27.0909 36.8693 27.0909C36.483 27.0909 36.1449 27.1534 35.8551 27.2784C35.5682 27.4034 35.3438 27.5753 35.1818 27.794C35.0227 28.0128 34.9432 28.2614 34.9432 28.5398C34.9432 28.7727 34.9986 28.973 35.1094 29.1406C35.223 29.3054 35.3679 29.4432 35.544 29.554C35.7202 29.6619 35.9048 29.7514 36.098 29.8224C36.2912 29.8906 36.4688 29.946 36.6307 29.9886L37.517 30.2273C37.7443 30.2869 37.9972 30.3693 38.2756 30.4744C38.5568 30.5795 38.8253 30.723 39.081 30.9048C39.3395 31.0838 39.5526 31.3139 39.7202 31.5952C39.8878 31.8764 39.9716 32.2216 39.9716 32.6307C39.9716 33.1023 39.848 33.5284 39.6009 33.9091C39.3565 34.2898 38.9986 34.5923 38.527 34.8168C38.0582 35.0412 37.4886 35.1534 36.8182 35.1534C36.1932 35.1534 35.652 35.0526 35.1946 34.8509C34.7401 34.6491 34.3821 34.3679 34.1207 34.0071C33.8622 33.6463 33.7159 33.2273 33.6818 32.75H34.7727C34.8011 33.0795 34.9119 33.3523 35.1051 33.5682C35.3011 33.7812 35.5483 33.9403 35.8466 34.0455C36.1477 34.1477 36.4716 34.1989 36.8182 34.1989C37.2216 34.1989 37.5838 34.1335 37.9048 34.0028C38.2259 33.8693 38.4801 33.6847 38.6676 33.4489C38.8551 33.2102 38.9489 32.9318 38.9489 32.6136C38.9489 32.3239 38.8679 32.0881 38.706 31.9062C38.544 31.7244 38.331 31.5767 38.0668 31.4631C37.8026 31.3494 37.517 31.25 37.2102 31.1648L36.1364 30.858C35.4545 30.6619 34.9148 30.3821 34.517 30.0185C34.1193 29.6548 33.9205 29.179 33.9205 28.5909C33.9205 28.1023 34.0526 27.6761 34.3168 27.3125C34.5838 26.946 34.9418 26.6619 35.3906 26.4602C35.8423 26.2557 36.3466 26.1534 36.9034 26.1534C37.4659 26.1534 37.9659 26.2543 38.4034 26.456C38.8409 26.6548 39.1875 26.9276 39.4432 27.2741C39.7017 27.6207 39.8381 28.0142 39.8523 28.4545H38.8295ZM41.2319 27.2102V26.2727H47.7773V27.2102H45.033V35H43.9762V27.2102H41.2319ZM48.7468 35H47.6388L50.8434 26.2727H51.9343L55.1388 35H54.0309L51.4229 27.6534H51.3548L48.7468 35ZM49.1559 31.5909H53.6218V32.5284H49.1559V31.5909ZM56.4982 35V26.2727H59.4471C60.1289 26.2727 60.6886 26.3892 61.1261 26.6222C61.5636 26.8523 61.8874 27.169 62.0977 27.5724C62.3079 27.9759 62.413 28.4347 62.413 28.9489C62.413 29.4631 62.3079 29.919 62.0977 30.3168C61.8874 30.7145 61.565 31.027 61.1303 31.2543C60.6957 31.4787 60.1403 31.5909 59.4641 31.5909H57.0778V30.6364H59.43C59.896 30.6364 60.271 30.5682 60.555 30.4318C60.842 30.2955 61.0494 30.1023 61.1772 29.8523C61.3079 29.5994 61.3732 29.2983 61.3732 28.9489C61.3732 28.5994 61.3079 28.294 61.1772 28.0327C61.0465 27.7713 60.8377 27.5696 60.5508 27.4276C60.2638 27.2827 59.8846 27.2102 59.413 27.2102H57.555V35H56.4982ZM60.6062 31.0795L62.7539 35H61.5266L59.413 31.0795H60.6062ZM63.6967 27.2102V26.2727H70.2422V27.2102H67.4979V35H66.4411V27.2102H63.6967Z" fill="#04C600"/>
</svg>
