<svg width="60%" height="60%" viewBox="0 0 200 200" fill="none" xmlns="http://www.w3.org/2000/svg">
<path d="M94.7476 57.1332C95.8524 57.1332 96.7476 56.2381 96.7476 55.1332V27.9672C96.7476 26.8623 95.8524 25.9672 94.7476 25.9672H56.9136C56.6509 25.9671 56.3908 26.0188 56.1481 26.1193C55.9055 26.2198 55.685 26.3671 55.4992 26.5529C55.3135 26.7386 55.1662 26.9591 55.0657 27.2018C54.9652 27.4444 54.9135 27.7045 54.9136 27.9672V55.1332C54.9136 56.2381 55.8087 57.1332 56.9136 57.1332H94.7476ZM94.7476 65.1332H56.9136C51.3905 65.1332 46.9136 60.6563 46.9136 55.1332V27.9672C46.9136 22.4441 51.3905 17.9672 56.9136 17.9672H94.7476C100.271 17.9672 104.748 22.4441 104.748 27.9672V55.1332C104.748 60.6563 100.271 65.1332 94.7476 65.1332ZM114.714 26.0666H131.88C134.09 26.0666 135.88 24.2758 135.88 22.0666C135.88 19.8574 134.09 18.0666 131.88 18.0666H114.714C112.505 18.0666 110.714 19.8574 110.714 22.0666C110.714 24.2758 112.505 26.0666 114.714 26.0666Z" fill="#0BAC08"/>
<path d="M36.0059 97.025V10.001C36.0059 8.89609 36.901 8.00098 38.0059 8.00098H144.63C145.735 8.00098 146.63 8.89609 146.63 10.001V93.751C146.63 95.9602 148.421 97.751 150.63 97.751C152.839 97.751 154.63 95.9602 154.63 93.751V10.001C154.63 4.47793 150.153 0.000976562 144.63 0.000976562H38.0059C32.4828 0.000976562 28.0059 4.47793 28.0059 10.001V97.025C28.0059 99.2342 29.7967 101.025 32.0059 101.025C34.215 101.025 36.0059 99.2342 36.0059 97.025ZM163.889 112.147V189.983C163.889 191.086 162.993 191.982 161.887 191.983L54.5887 191.999C53.4844 191.999 52.5893 191.104 52.5893 189.999V117.767C52.5893 115.558 50.7984 113.767 48.5893 113.767C46.3801 113.767 44.5893 115.558 44.5893 117.767V189.999C44.5893 195.522 49.0662 199.999 54.5893 199.999L161.89 199.983C167.413 199.98 171.889 195.504 171.889 189.983V112.147C171.889 109.938 170.098 108.147 167.889 108.147C165.68 108.147 163.889 109.938 163.889 112.147Z" fill="#0BAC08"/>
<path d="M35.9845 97.6984L36.0558 97.7756C36.0173 97.7547 36.0108 97.727 35.9845 97.6984ZM163.874 112.663L163.813 112.597C163.848 112.616 163.853 112.64 163.874 112.663ZM150.377 97.924C150.323 97.8654 150.194 97.8104 150.036 97.8104H36.3222C36.1657 97.8104 36.0944 97.7967 36.0558 97.7756L49.589 112.449C49.6431 112.507 49.7722 112.562 49.9302 112.562H163.544C163.704 112.562 163.775 112.577 163.813 112.597L150.378 97.9238L150.377 97.924ZM163.544 120.562H49.93C47.5653 120.562 45.298 119.594 43.7097 117.874L30.1034 103.122C25.2626 97.8729 29.2665 89.8104 36.322 89.8104H150.036C152.401 89.8104 154.668 90.7785 156.266 92.509L169.765 107.251C174.606 112.5 170.599 120.562 163.544 120.562Z" fill="#0BAC08"/>
</svg>
