<svg width="100%" height="100%" viewBox="0 0 100 100" fill="none" xmlns="http://www.w3.org/2000/svg">
<rect x="0.5" y="7.90723" width="99" height="91.5926" rx="1.5" fill="#434343" stroke="#E8E8E8"/>
<path d="M13.158 1C13.158 0.447715 13.6057 0 14.158 0H37.8159C38.3681 0 38.8159 0.447715 38.8159 1V8.33333H13.158V1Z" fill="#E3E3E3"/>
<path d="M61.1842 1C61.1842 0.447715 61.6319 0 62.1842 0H85.8421C86.3944 0 86.8421 0.447715 86.8421 1V8.33333H61.1842V1Z" fill="#E2E2E2"/>
<path d="M6.66669 80H93.3334V92.3333C93.3334 92.8856 92.8856 93.3333 92.3334 93.3333H7.66669C7.1144 93.3333 6.66669 92.8856 6.66669 92.3333V80Z" fill="#D31D1D"/>
<line x1="51" y1="27" x2="51" y2="60.3333" stroke="white" stroke-width="2"/>
<circle cx="50" cy="70" r="3.33333" fill="white"/>
</svg>
