<svg width="80%" height="80%" viewBox="0 0 200 200" fill="none" xmlns="http://www.w3.org/2000/svg">
<path d="M160.196 84.6446C139.707 84.6477 122.857 100.127 120.654 120.025H103.581L122.253 67.9356H67.7418L80.7605 35.7477H46.6824V44.593H67.6426L50.8055 86.2192C47.3086 85.2141 43.6262 84.6442 39.8039 84.6442C17.8172 84.6477 0.00429688 102.464 0 124.448C0.00429688 146.432 17.8172 164.249 39.8035 164.252C61.7898 164.249 79.6027 146.432 79.6074 124.448C79.6043 109.424 71.2762 96.3551 58.9887 89.577L64.166 76.7817H109.686L91.0125 128.872H120.654C122.857 148.77 139.707 164.25 160.196 164.252C182.183 164.25 199.996 146.432 200 124.449C199.996 102.464 182.183 84.6477 160.196 84.6446ZM59.6105 104.641C64.6879 109.729 67.8105 116.694 67.8137 124.448C67.8105 132.2 64.6879 139.164 59.6105 144.255C54.523 149.332 47.5578 152.455 39.8035 152.459C32.0496 152.455 25.0844 149.332 19.9965 144.255C14.9191 139.165 11.7965 132.2 11.7934 124.448C11.7965 116.695 14.9191 109.729 19.9965 104.641C25.0844 99.5653 32.0496 96.4414 39.8035 96.4383C42.0652 96.4383 44.2492 96.7352 46.3496 97.236L34.2277 127.209L42.4277 130.526L54.5141 100.645C56.357 101.785 58.0785 103.113 59.6105 104.641ZM180.003 144.255C174.915 149.331 167.95 152.455 160.196 152.458C152.442 152.455 145.477 149.331 140.389 144.255C136.3 140.155 133.513 134.831 132.568 128.871H160.196V120.025H132.568C133.513 114.062 136.3 108.739 140.389 104.641C145.477 99.5649 152.442 96.441 160.196 96.4379C167.95 96.441 174.915 99.5649 180.003 104.641C185.08 109.729 188.203 116.694 188.206 124.448C188.204 132.199 185.081 139.164 180.003 144.255Z" fill="#FFB800"/>
<path d="M132.433 62.7762L135.87 52.2122H104.177L107.86 62.7762H132.433Z" fill="#FFB800"/>
</svg>
