<svg width="100%" height="100%" viewBox="0 0 100 100" fill="none" xmlns="http://www.w3.org/2000/svg">
<g clip-path="url(#clip0_1025_54)">
<path d="M99.983 32.4486C99.0776 25.6465 78.1903 26.2747 79.1353 29.8908C80.0804 33.5069 72.0503 36.2911 72.0503 36.2911L60.5059 38.5377C53.4831 32.9579 50.3084 31.2093 47.8751 29.6474C38.4189 23.5867 28.5043 36.0761 28.5043 36.0761C28.5043 36.0761 19.3254 34.9556 30.1964 24.0847C-7.63398 43.5063 10.3729 46.7432 10.3729 46.7432H21.0062L19.3085 49.4879C17.6278 48.7465 15.7603 48.3278 13.791 48.3278C6.17396 48.3278 0 54.5074 0 62.1187C0 69.7357 6.17396 75.9153 13.791 75.9153C21.408 75.9153 27.5819 69.7357 27.5819 62.1187C27.5819 57.8462 25.6352 54.032 22.5794 51.5025L24.0394 49.137L38.7471 65.5254H40.026H66.6969H70.0017C71.5183 71.49 76.917 75.9153 83.3513 75.9153C90.9683 75.9153 97.1366 69.7357 97.1366 62.1187C97.1366 54.5074 90.9683 48.3278 83.3513 48.3278C76.3907 48.3278 70.6525 53.4888 69.7074 60.189H69.5773C69.5773 60.189 68.3719 55.758 66.2272 50.2688C73.3914 47.875 100.77 38.3623 99.983 32.4486ZM13.7966 70.7883C9.01477 70.7883 5.1327 66.9006 5.1327 62.1187C5.1327 57.3369 9.02043 53.4548 13.7966 53.4548C14.7756 53.4548 15.7094 53.6189 16.5865 53.9245L13.5986 58.7686C13.5759 58.8026 13.5363 58.8252 13.5137 58.8648L12.263 60.919C12.2574 60.9417 12.263 60.953 12.2517 60.9643L12.1612 61.1114L12.1895 61.1341C11.7933 62.0055 12.0706 63.0581 12.9138 63.5731C13.7513 64.0824 14.7983 63.8504 15.3925 63.1034L15.4321 63.1317L15.5452 62.9506C15.5509 62.9393 15.5679 62.928 15.5679 62.928L16.1281 62.0112L19.8631 55.9391C21.4702 57.5123 22.4662 59.7023 22.4662 62.1244C22.4605 66.9006 18.5728 70.7883 13.7966 70.7883ZM83.3569 53.4491C88.1331 53.4491 92.0208 57.3369 92.0208 62.1131C92.0208 66.9006 88.1274 70.7826 83.3569 70.7826C79.7804 70.7826 76.7019 68.6039 75.3834 65.5141H85.9035V65.4688H86.1468C87.6125 65.4915 88.8178 64.337 88.8348 62.8657C88.8631 61.4057 87.6917 60.206 86.2317 60.1777L82.9325 60.1381C82.7627 60.1324 82.5986 60.1494 82.4345 60.1777H74.9137C75.7852 56.3352 79.2315 53.4491 83.3569 53.4491Z" fill="#0BAC08"/>
</g>
<defs>
<clipPath id="clip0_1025_54">
<rect width="100" height="100" fill="white"/>
</clipPath>
</defs>
</svg>
