<svg width="100%" height="100%" viewBox="0 0 100 100" fill="none" xmlns="http://www.w3.org/2000/svg">
<path d="M24.6355 58.1495C23.9825 58.1495 23.4525 58.6795 23.4525 59.3335C23.4525 59.5255 23.4985 59.7065 23.5795 59.8665C23.7745 60.2515 24.1745 60.5165 24.6355 60.5165C25.0975 60.5165 25.4975 60.2515 25.6925 59.8665C25.7735 59.7065 25.8185 59.5255 25.8185 59.3335C25.8185 58.6795 25.2895 58.1495 24.6355 58.1495Z" fill="#231F20"/>
<path d="M75.1835 58.1495C74.5295 58.1495 73.9995 58.6795 73.9995 59.3335C73.9995 59.5255 74.0445 59.7065 74.1265 59.8665C74.3215 60.2515 74.7215 60.5165 75.1835 60.5165C75.6445 60.5165 76.0445 60.2515 76.2395 59.8665C76.3205 59.7065 76.3665 59.5255 76.3665 59.3335C76.3665 58.6795 75.8365 58.1495 75.1835 58.1495Z" fill="#231F20"/>
<path d="M15.2235 57.8375C15.2235 58.9585 16.1315 59.8665 17.2515 59.8665H19.2615C19.5295 62.5985 21.8335 64.7335 24.6355 64.7335C27.4375 64.7335 29.7415 62.5985 30.0095 59.8665H69.8095C70.0775 62.5985 72.3805 64.7335 75.1835 64.7335C77.9855 64.7335 80.2895 62.5985 80.5575 59.8665H82.7475C83.8685 59.8665 84.7765 58.9585 84.7765 57.8375V37.2955C84.7765 36.1745 83.8685 35.2665 82.7475 35.2665H26.4155C25.8155 35.2665 25.2215 35.3455 24.6485 35.4995C24.3452 35.5809 24.0476 35.6838 23.7577 35.8066L17.6155 35.9208C17.5522 35.6886 17.3749 35.5008 17.1404 35.4277C16.8348 35.3324 16.5032 35.4525 16.3295 35.7213L15.8646 36.4408C15.7706 36.5863 15.7328 36.761 15.7582 36.9323L16.1035 39.2584C16.1554 39.6078 16.4553 39.8665 16.8086 39.8665H17.2646C17.6892 39.8665 18.0197 39.4976 17.9731 39.0754L17.7594 37.1415H21.7232C20.9282 37.897 20.3203 38.8382 19.9624 39.8915L15.4674 54.1465C15.3054 54.6235 15.2234 55.1235 15.2234 55.6265V57.8375H15.2235ZM27.4855 59.8665C27.2355 61.2115 26.0525 62.2335 24.6355 62.2335C23.2185 62.2335 22.0355 61.2115 21.7855 59.8665C21.7525 59.6935 21.7355 59.5155 21.7355 59.3335C21.7355 57.7345 23.0365 56.4335 24.6355 56.4335C26.2345 56.4335 27.5355 57.7345 27.5355 59.3335C27.5355 59.5155 27.5185 59.6935 27.4855 59.8665ZM70.1881 51.6211C70.1099 51.6211 70.0396 51.6646 70.0046 51.7346L68.0874 55.5759C67.7628 56.2263 67.1097 56.6303 66.3829 56.6303H36.7111C36.0743 56.6303 35.4825 56.3144 35.1282 55.7853C34.7739 55.2561 34.7071 54.5886 34.9496 53.9998C34.984 53.9161 34.9581 53.849 34.9304 53.8075C34.9026 53.7661 34.8505 53.7166 34.76 53.7166H27.5356C27.0662 53.7166 26.6856 53.336 26.6856 52.8666C26.6856 52.3972 27.0662 52.0166 27.5356 52.0166H34.76C35.3969 52.0166 35.9886 52.3325 36.343 52.8616C36.6973 53.3908 36.7641 54.0583 36.5216 54.6471C36.4872 54.7309 36.5131 54.7979 36.5409 54.8394C36.5687 54.8809 36.6208 54.9304 36.7113 54.9304H66.3831C66.4613 54.9304 66.5316 54.8869 66.5665 54.8168L68.4837 50.9755C68.8083 50.3252 69.4614 49.9212 70.1883 49.9212H77.1337C77.6031 49.9212 77.9837 50.3018 77.9837 50.7712C77.9837 51.2406 77.6031 51.6212 77.1337 51.6212L70.1881 51.6211ZM78.0335 59.8665C77.7835 61.2115 76.6005 62.2335 75.1835 62.2335C73.7655 62.2335 72.5835 61.2115 72.3335 59.8665C72.3005 59.6935 72.2835 59.5155 72.2835 59.3335C72.2835 57.7345 73.5835 56.4335 75.1835 56.4335C76.7825 56.4335 78.0835 57.7345 78.0835 59.3335C78.0835 59.5155 78.0665 59.6935 78.0335 59.8665ZM83.0727 50.7711C83.4317 50.7711 83.7227 51.3602 83.7227 52.0869C83.7227 52.8136 83.4317 53.4027 83.0727 53.4027C82.7137 53.4027 82.4227 52.8136 82.4227 52.0869C82.4227 51.3602 82.7137 50.7711 83.0727 50.7711ZM83.0727 54.4644C83.4317 54.4644 83.7227 55.0535 83.7227 55.7802C83.7227 56.5069 83.4317 57.0959 83.0727 57.0959C82.7137 57.0959 82.4227 56.5068 82.4227 55.7802C82.4227 55.0536 82.7137 54.4644 83.0727 54.4644ZM34.7341 47.036L37.0277 38.3633C37.1207 38.0115 37.439 37.7665 37.8028 37.7665H80.9838C81.4266 37.7665 81.7855 38.1254 81.7855 38.5683V43.9725C81.7855 44.1623 81.7181 44.346 81.5954 44.4909L78.8256 47.7594C78.6733 47.9391 78.4496 48.0428 78.2139 48.0428H35.5092C34.9831 48.0427 34.5996 47.5446 34.7341 47.036ZM20.2225 47.3802L22.3376 40.6726C22.6769 39.6918 23.3568 38.8666 24.2544 38.3469C24.5812 38.1573 24.9312 38.012 25.2964 37.9141C25.6612 37.8161 26.0374 37.7664 26.4155 37.7664H33.8184C34.1489 37.7664 34.3918 38.0762 34.3131 38.3972L32.9268 44.0451C32.6776 45.0602 31.7928 45.7854 30.7587 45.8395C29.9645 45.881 29.2161 46.2226 28.7043 46.8313L28.5456 47.02C28.0004 47.6684 27.1965 48.0427 26.3493 48.0427H20.7083C20.3641 48.0427 20.119 47.7085 20.2225 47.3802ZM16.6275 55.7674L16.7115 55.039C16.7403 54.7894 16.9223 54.5844 17.1668 54.5263L19.4627 53.9804C19.8774 53.8818 20.259 54.2369 20.1905 54.6576L20.0518 55.5096C20.0114 55.7578 19.8199 55.9541 19.5728 56.0007L17.3316 56.4229C16.9359 56.4975 16.5814 56.1673 16.6275 55.7674Z" fill="#595959"/>
</svg>
