<svg width="100%" height="100%" viewBox="0 0 100 100" fill="none" xmlns="http://www.w3.org/2000/svg">
<g clip-path="url(#clip0_1023_8)">
<path d="M17.1067 50.002C12.9611 50.002 9.60034 53.3608 9.60034 57.5074C9.60034 57.8284 9.6265 58.1423 9.66675 58.4512C10.1316 62.1511 13.2821 65.0128 17.1067 65.0128C21.037 65.0128 24.2559 61.9921 24.5819 58.1474C24.601 57.935 24.6141 57.7227 24.6141 57.5054C24.6151 53.3608 21.2544 50.002 17.1067 50.002ZM13.3465 54.6799L14.878 56.2104C14.7582 56.4146 14.6656 56.636 14.6053 56.8705H12.4469C12.5606 56.0524 12.8736 55.3088 13.3465 54.6799ZM12.4409 58.1715H14.6143C14.6767 58.4019 14.7653 58.6213 14.886 58.8215L13.3525 60.355C12.8776 59.7301 12.5566 58.9845 12.4409 58.1715ZM16.4577 62.1712C15.6437 62.0595 14.9051 61.7396 14.2803 61.2696L15.8067 59.7422C16.0069 59.8589 16.2273 59.9445 16.4577 60.0058V62.1712ZM16.4577 55.012C16.2213 55.0744 15.9999 55.1659 15.7936 55.2877L14.2632 53.7572C14.892 53.2793 15.6377 52.9643 16.4577 52.8506V55.012ZM17.7567 52.8506C18.5748 52.9643 19.3214 53.2813 19.9503 53.7582L18.4209 55.2877C18.2146 55.1659 17.9922 55.0723 17.7567 55.012V52.8506ZM17.7567 62.1702V60.0058C17.9872 59.9445 18.2065 59.8589 18.4068 59.7402L19.9352 61.2696C19.3103 61.7385 18.5708 62.0585 17.7567 62.1702ZM20.867 60.361L19.3275 58.8205C19.4462 58.6203 19.5458 58.4039 19.6072 58.1705H21.7645C21.6498 58.9845 21.3419 59.7362 20.867 60.361ZM19.6082 56.8715C19.5468 56.637 19.4552 56.4156 19.3355 56.2114L20.867 54.6809C21.3409 55.3098 21.6538 56.0534 21.7665 56.8735L19.6082 56.8715Z" fill="#0BAC08"/>
<path d="M79.0999 50.0674C74.9713 50.0674 71.6257 53.4121 71.6257 57.5416C71.6257 57.8606 71.6508 58.1725 71.6901 58.4814C72.1529 62.1642 75.2903 65.0158 79.0989 65.0158C83.012 65.0158 86.2168 62.0082 86.5408 58.1795C86.56 57.9682 86.573 57.7569 86.573 57.5416C86.5751 53.4121 83.2294 50.0674 79.0999 50.0674ZM75.3567 54.7252L76.8822 56.2506C76.7634 56.4539 76.6709 56.6742 76.6105 56.9077H74.4612C74.5729 56.0906 74.8848 55.3511 75.3567 54.7252ZM74.4542 58.2017H76.6175C76.6799 58.4321 76.7685 58.6484 76.8882 58.8497L75.3597 60.3791C74.8898 59.7553 74.5689 59.0107 74.4542 58.2017ZM78.4539 62.1853C77.6439 62.0726 76.9093 61.7536 76.2865 61.2837L77.8059 59.7643C78.0051 59.8801 78.2255 59.9666 78.4549 60.026L78.4539 62.1853ZM78.4539 55.0552C78.2194 55.1166 77.9981 55.2082 77.7938 55.3289L76.2704 53.8055C76.8962 53.3316 77.6388 53.0166 78.4539 52.9029V55.0552ZM79.7479 52.9029C80.5649 53.0166 81.3065 53.3336 81.9314 53.8065L80.409 55.3289C80.2037 55.2082 79.9833 55.1146 79.7479 55.0552V52.9029ZM79.7479 62.1843V60.026C79.9783 59.9666 80.1966 59.8791 80.3969 59.7623L81.9173 61.2837C81.2944 61.7526 80.5589 62.0706 79.7479 62.1843ZM82.844 60.3822L81.3115 58.8487C81.4293 58.6484 81.5289 58.4341 81.5892 58.2017H83.7365C83.6228 59.0107 83.3169 59.7583 82.844 60.3822ZM81.5913 56.9067C81.5309 56.6732 81.4403 56.4529 81.3196 56.2496L82.845 54.7242C83.3169 55.3501 83.6278 56.0896 83.7395 56.9067H81.5913Z" fill="#0BAC08"/>
<path d="M99.9698 52.3244C99.9437 51.3353 99.6368 50.3713 99.0824 49.5482L98.6779 48.9445L96.9099 44.2807C96.5769 43.4002 95.7639 42.7874 94.8271 42.7089C93.0883 42.562 90.1351 42.3387 87.3157 42.235C77.4607 37.0017 59.2381 31.7402 43.7846 37.4746C40.614 38.6509 31.555 43.2543 31.555 43.2543C31.555 43.2543 16.8441 42.882 6.3523 46.6241C2.21875 48.0983 -0.388362 52.2016 0.0473308 56.5696C0.134872 57.444 0.263668 58.2218 0.390451 58.8497C0.590689 59.8428 1.41076 60.5915 2.41798 60.7032L8.94532 61.4186C8.53478 60.5613 8.246 59.6345 8.12223 58.6464C8.06991 58.2429 8.04375 57.8696 8.04375 57.5074C8.04375 52.5095 12.1099 48.4434 17.1078 48.4434C22.1067 48.4434 26.1738 52.5105 26.1738 57.5074C26.1738 57.769 26.1567 58.0246 26.1356 58.2802C26.04 59.4021 25.7341 60.4657 25.2622 61.4347H70.5873L70.9545 61.4135C70.552 60.5663 70.2673 59.6496 70.1455 58.6766C70.0932 58.2711 70.0681 57.8988 70.0681 57.5426C70.0681 52.5618 74.1191 48.5088 79.1009 48.5088C84.0827 48.5088 88.1347 52.5598 88.1347 57.5426C88.1347 57.8032 88.1176 58.0568 88.0965 58.3114C88.0341 59.0499 87.8721 59.7583 87.6407 60.4345L88.66 60.3731L95.6824 59.4444C96.9039 59.2824 97.9816 58.5629 98.5984 57.4963L99.2977 56.2899C99.7797 55.4547 100.023 54.5018 99.997 53.5379L99.9698 52.3244ZM75.0941 43.3358H40.7207C40.7207 43.3358 40.925 42.5218 40.0264 41.5387C40.0264 41.5387 48.8137 35.8707 62.3846 37.2864C66.1187 37.6768 70.6819 37.9415 76.8942 41.1704L75.0941 43.3358Z" fill="#0BAC08"/>
</g>
<defs>
<clipPath id="clip0_1023_8">
<rect width="100" height="100" fill="white"/>
</clipPath>
</defs>
</svg>
