<svg width="60%" height="60%" viewBox="0 0 200 200" fill="none" xmlns="http://www.w3.org/2000/svg">
<g clip-path="url(#clip0_1429_48)">
<path d="M195.62 112.427C195.646 112.4 195.673 112.373 195.7 112.35C198.473 109.57 200 105.88 200 101.957V96.6668C200 94.8234 198.51 93.3336 196.667 93.3336H187.31L125.857 68.75C124.16 68.0668 122.207 68.8934 121.523 70.6102C120.84 72.3168 121.673 74.257 123.384 74.9402L169.357 93.3336H31.9301L89.227 72.1137C92.1734 76.8305 97.3734 80.0004 103.334 80.0004C112.523 80.0004 120 72.5238 120 63.3336C120 55.2836 114.264 48.5504 106.667 47.0035V42.9969C114.264 41.4469 120 34.7137 120 26.6668V3.3332C120 1.48984 118.511 0 116.667 0C114.824 0 113.334 1.48984 113.334 3.3332V13.4199C110.541 11.3031 107.101 10 103.334 10C99.5672 10 96.1273 11.3035 93.334 13.4199V3.3332C93.334 1.48984 91.8441 0 90.0008 0C88.1574 0 86.6676 1.48984 86.6676 3.3332V26.6664C86.6676 34.7129 92.4043 41.4465 100.001 42.9965V50C100.001 51.8434 101.491 53.3332 103.334 53.3332C108.847 53.3332 113.334 57.8199 113.334 63.3332C113.334 68.8465 108.847 73.3332 103.334 73.3332C100.257 73.3332 97.534 71.9066 95.7008 69.7133L103.287 66.9066L105.441 67.7668C105.845 67.9301 106.264 68.0035 106.678 68.0035C107.998 68.0035 109.248 67.2137 109.774 65.907C110.457 64.2004 109.628 62.2605 107.914 61.577L104.571 60.2371C104.421 60.177 104.264 60.1906 104.111 60.1539C103.867 60.0938 103.634 60.0207 103.38 60.0172C103.124 60.0141 102.887 60.0805 102.641 60.134C102.487 60.1672 102.33 60.1508 102.174 60.2074L93.3473 63.4773C93.3473 63.4273 93.334 63.384 93.334 63.334C93.334 61.4906 91.8441 60.0008 90.0008 60.0008C88.1574 60.0008 86.6676 61.4906 86.6676 63.334C86.6676 64.1973 86.7941 65.0273 86.9242 65.8574L12.7375 93.334H3.3332C1.48984 93.334 0 94.8238 0 96.6672V101.964C0 105.837 1.57344 109.627 4.31016 112.364C5.83008 113.877 6.6668 115.897 6.6668 118.044V175.294C6.6668 177.374 5.83359 179.414 4.37695 180.904C4.35352 180.93 4.32695 180.957 4.30039 180.98C1.52656 183.76 0 187.45 0 191.373V196.667C0 198.51 1.48984 200 3.3332 200H196.666C198.51 200 200 198.51 200 196.667V191.38C200 187.52 198.436 183.737 195.68 180.977C194.19 179.477 193.333 177.41 193.333 175.3V118.04C193.333 115.927 194.143 113.937 195.62 112.427ZM33.3332 180C33.3332 181.843 31.8434 183.333 30 183.333C28.1566 183.333 26.6668 181.843 26.6668 180V113.333C26.6668 111.49 28.1566 110 30 110C31.8434 110 33.3332 111.49 33.3332 113.333V180ZM53.3332 180C53.3332 181.843 51.8434 183.333 50 183.333C48.1566 183.333 46.6668 181.843 46.6668 180V113.333C46.6668 111.49 48.1566 110 50 110C51.8434 110 53.3332 111.49 53.3332 113.333V180ZM73.3332 180C73.3332 181.843 71.8434 183.333 70 183.333C68.1566 183.333 66.6668 181.843 66.6668 180V113.333C66.6668 111.49 68.1566 110 70 110C71.8434 110 73.3332 111.49 73.3332 113.333V180ZM93.3332 180C93.3332 181.843 91.8434 183.333 90 183.333C88.1566 183.333 86.6668 181.843 86.6668 180V113.333C86.6668 111.49 88.1566 110 90 110C91.8434 110 93.3332 111.49 93.3332 113.333V180ZM113.333 180C113.333 181.843 111.843 183.333 110 183.333C108.157 183.333 106.667 181.843 106.667 180V113.333C106.667 111.49 108.157 110 110 110C111.843 110 113.333 111.49 113.333 113.333V180ZM133.333 180C133.333 181.843 131.843 183.333 130 183.333C128.157 183.333 126.667 181.843 126.667 180V113.333C126.667 111.49 128.157 110 130 110C131.843 110 133.333 111.49 133.333 113.333V180ZM153.333 180C153.333 181.843 151.843 183.333 150 183.333C148.157 183.333 146.667 181.843 146.667 180V113.333C146.667 111.49 148.157 110 150 110C151.843 110 153.333 111.49 153.333 113.333V180ZM173.333 180C173.333 181.843 171.843 183.333 170 183.333C168.157 183.333 166.667 181.843 166.667 180V113.333C166.667 111.49 168.157 110 170 110C171.843 110 173.333 111.49 173.333 113.333V180Z" fill="#0BAC08"/>
</g>
<defs>
<clipPath id="clip0_1429_48">
<rect width="200" height="200" fill="white"/>
</clipPath>
</defs>
</svg>
