<svg width="100%" height="100%" viewBox="0 0 100 100" fill="none" xmlns="http://www.w3.org/2000/svg">
<path d="M81.5104 0L76.3021 5.13393L86.1979 12.9464C86.4997 13.2051 86.9112 13.5514 87.2396 13.8393L85.1562 15.8482C81.8211 18.7069 84.2141 22.4067 85.4167 23.4375L91.6667 28.7946V71.4286C91.6667 78.5714 88.3989 78.5714 87.5 78.5714C86.6011 78.5714 83.3333 78.5714 83.3333 71.4286V42.8571C83.3333 33.7078 75 28.5714 66.6667 28.5714V14.2857C66.6667 10.3478 63.1273 7.14286 58.3333 7.14286H8.33333C3.33964 7.14286 0 10.1766 0 14.2857V100H66.6667V35.7143C66.6667 35.7143 75 35.7143 75 42.8571V71.4286C75 85.7143 85.3308 85.7143 87.5 85.7143C89.7971 85.7143 100 85.7143 100 71.4286V21.4286C100 14.2857 97.6165 12.7913 94.7917 10.4911L81.5104 0ZM8.33333 21.4286H58.3333V42.8571H8.33333V21.4286Z" fill="#FFA318"/>
</svg>
