<svg width="100%" height="100%" viewBox="0 0 100 100" fill="none" xmlns="http://www.w3.org/2000/svg">
<path d="M50.838 50.839C44.2245 57.4541 44.2245 68.1814 50.838 74.7998L74.8014 50.839C68.1843 44.2207 57.4566 44.2207 50.838 50.839Z" fill="#00F0FF"/>
<path d="M26.458 10.9021L10.9012 26.4584L39.4313 54.9875L54.9915 39.4277L26.458 10.9021Z" fill="#00F0FF"/>
<path d="M80.7223 13.2936L67.4267 0L43.5763 23.8512L56.8703 37.1463L80.7223 13.2936ZM63.8063 25.2946L60.7085 22.1987L65.7759 17.1315L68.8719 20.2256L63.8063 25.2946ZM75.8024 13.2936L71.0542 18.0416L67.96 14.9459L72.7066 10.1994L75.8024 13.2936ZM67.4267 4.925L70.5208 8.01739L65.7759 12.7656L62.6817 9.66973L67.4267 4.925ZM60.4978 11.8553L63.5903 14.9461L58.5264 20.0149L55.4304 16.9207L60.4978 11.8553ZM48.4997 23.8512L53.2464 19.1047L56.3406 22.1988L51.592 26.9436L48.4997 23.8512ZM58.5229 24.3809L61.6189 27.4766L56.8723 32.2231L53.7796 29.1307L58.5229 24.3809Z" fill="#00F0FF"/>
<path d="M0 67.424L13.2956 80.7175L37.1476 56.8663L23.8555 43.5763L0 67.424ZM16.9229 55.4265L20.0171 58.5206L14.9499 63.5894L11.8557 60.4935L16.9229 55.4265ZM4.92498 67.424L9.66987 62.679L12.7641 65.7714L8.01923 70.5197L4.92498 67.424ZM13.2956 75.796L10.1998 72.7037L14.9499 67.9552L18.0424 71.0476L13.2956 75.796ZM20.2281 68.8673L17.132 65.7714L22.1992 60.7027L25.2935 63.7986L20.2281 68.8673ZM32.2242 56.8697L27.481 61.6146L24.385 58.5204L29.1301 53.7757L32.2242 56.8697ZM22.1992 56.3365L19.1032 53.2458L23.8553 48.4958L26.9478 51.59L22.1992 56.3365Z" fill="#00F0FF"/>
<path d="M70.9819 66.1176C69.6417 64.7805 67.4644 64.7789 66.1273 66.1176C64.7815 67.4582 64.7815 69.637 66.124 70.9774C67.468 72.3196 69.6417 72.3196 70.9819 70.9774C72.3242 69.637 72.3242 67.4633 70.9819 66.1176Z" fill="#00F0FF"/>
<path d="M96.4246 73.9531C95.391 79.3457 92.8042 84.4781 88.6437 88.6367C84.4814 92.7988 79.349 95.3871 73.9612 96.426L74.6487 100C80.7206 98.8328 86.5301 95.8998 91.2186 91.2115C95.907 86.5232 98.8364 80.7123 100.001 74.6388L96.4246 73.9531Z" fill="#00F0FF"/>
<path d="M91.1022 72.7105L87.5192 72.0573C86.8387 75.7857 85.0799 79.3323 82.2102 82.2019C79.339 85.0714 75.7887 86.8335 72.0638 87.5193L72.7203 91.0984C77.136 90.2929 81.3752 88.1843 84.7849 84.7747C88.1913 81.3689 90.2978 77.1279 91.1022 72.7105Z" fill="#00F0FF"/>
<path d="M78.3498 78.3414C80.4839 76.207 81.7663 73.5279 82.207 70.7593L78.6139 70.1833C78.2813 72.2404 77.3453 74.1947 75.7734 75.7666V75.7681C74.1981 77.3402 72.2455 78.2777 70.1902 78.6086L70.7695 82.2015C73.5344 81.7591 76.2122 80.4771 78.3465 78.3427L78.3498 78.3414Z" fill="#00F0FF"/>
</svg>
