<svg width="100%" height="100%" viewBox="0 0 100 100" fill="none" xmlns="http://www.w3.org/2000/svg">
<path fill-rule="evenodd" clip-rule="evenodd" d="M35.4655 97.4733L25.9603 85.1359H19.4173C17.1305 85.1359 15.2588 82.7043 15.2588 79.7336V70.536H11.2956V81.2982C11.2956 83.5923 9.84701 85.4742 8.08106 85.4742H3.21452C1.44857 85.4742 0 83.5923 0 81.2982V44.825C0 42.5309 1.44857 40.6491 3.21452 40.6491H8.08106C9.84701 40.6491 11.2956 42.5309 11.2956 44.825V55.5873H15.2588V45.6919C15.2588 42.7212 17.1305 40.2897 19.4173 40.2897H26.3672L36.1898 26.7259C37.3291 25.4361 38.8428 24.9815 40.6087 25.0766H81.0791C82.4788 25.2775 83.5449 25.9753 84.196 27.2862C84.847 28.576 84.7412 29.3054 84.7412 30.7538V55.5873H88.7044V44.825C88.7044 42.5309 90.153 40.6491 91.9189 40.6491H96.7855C98.5514 40.6491 100 42.5309 100 44.825V81.2982C100 83.5923 98.5514 85.4742 96.7855 85.4742H91.9189C90.153 85.4742 88.7044 83.5923 88.7044 81.2982V70.536H84.7412V71.5086C84.7412 74.3948 84.8063 76.1391 83.3903 78.5284C83.1217 78.983 82.8206 79.4164 82.487 79.8182L67.9769 98.2768C67.2526 99.3234 66.154 99.8943 64.7054 100H39.9658C38.1185 99.8943 36.613 99.0697 35.4655 97.4733ZM51.8473 65.3135L41.5609 64.0554L50.0895 39.7822H61.7513L55.1351 53.7055L67.0329 55.4181L45.1904 89.4809L51.8473 65.3135ZM42.3014 0H70.3776C72.1436 0 73.5921 1.88181 73.5921 4.17592V10.4979C73.5921 12.7921 72.1436 14.6739 70.3776 14.6739H62.0931V19.9915H50.5859V14.6739H42.3014C40.5355 14.6739 39.0869 12.7921 39.0869 10.4979V4.17592C39.0869 1.88181 40.5355 0 42.3014 0Z" fill="#AEAEAE"/>
</svg>
