<svg width="60%" height="60%" viewBox="0 0 200 200" fill="none" xmlns="http://www.w3.org/2000/svg">
<g clip-path="url(#clip0_1429_85)">
<path d="M52.0834 54.167C50.3259 54.167 48.5342 54.272 46.8751 54.6879C45.9034 54.9345 44.9451 55.3504 44.0101 55.7295C43.6484 55.877 43.3234 56.0829 42.9684 56.2504C42.8209 56.3187 42.8551 56.4387 42.7084 56.5104C41.8267 56.947 40.9351 57.2637 40.1042 57.8129C39.9876 57.8887 39.6992 57.9954 39.5834 58.0737C39.3392 58.2404 39.3017 58.417 39.0626 58.5937C38.3826 59.082 37.6176 59.602 36.9792 60.157C36.3967 60.6804 35.9617 61.3987 35.4167 61.9795C33.5734 63.8704 31.7701 65.8845 30.4684 68.2295C28.2334 72.1487 26.7451 76.442 26.0417 80.9904C25.7026 80.9187 25.2976 80.892 25.0001 80.9904C22.7226 81.7304 22.2151 86.067 23.6984 90.6254C24.5684 93.3004 25.8676 95.4254 27.3434 96.617C29.3267 104.325 33.5909 110.817 39.0626 114.842V119.267L34.6351 123.434L26.0417 127.867C19.0284 131.342 11.9534 134.809 4.94841 138.284C1.06591 140.625 -0.370008 145.167 7.53403e-05 149.484C0.180759 152.192 -0.874341 155.742 1.82299 157.55C4.38549 158.867 7.63458 158.117 10.4163 158.334H25.5205C27.0347 156.35 28.9272 154.517 31.2497 153.125L31.5097 152.867H31.7705C43.5288 147.092 55.138 141.2 66.9263 135.417L80.468 128.909C79.7005 128.525 78.8913 128.242 78.1247 127.867L69.5313 123.434L65.1038 119.267V114.842C68.5663 112.3 71.493 108.617 73.698 104.425C70.7272 99.6254 68.4405 94.1087 66.9263 88.2837C64.4105 85.7004 62.0522 82.832 60.6763 78.6462C59.2605 74.337 58.8563 69.8845 59.3747 66.1462C59.8338 62.8345 61.4247 59.6995 64.583 58.0737C63.653 57.4695 62.443 56.9987 61.458 56.5104C60.9613 56.267 60.6663 55.9362 60.1563 55.7295C59.7938 55.582 59.483 55.597 59.1147 55.4687C58.0072 55.0854 56.8805 54.6237 55.7288 54.427C55.6405 54.4137 55.5572 54.442 55.468 54.427C54.3872 54.257 53.1909 54.1545 52.0834 54.167Z" fill="#0057FF"/>
<path d="M112.492 18.333C109.542 18.333 106.633 18.3328 103.842 19.1661C102.217 19.1661 100.633 20.0001 99.0666 20.8334C98.4583 20.8334 97.8416 20.8332 97.2416 21.6665H96.5583C95.0833 22.4999 93.6333 23.3336 92.2333 24.167H91.55C91.1416 25.0003 90.8166 24.9999 90.4166 25.8332C89.275 26.6665 88.075 26.667 87 28.3336C86.025 29.167 85.1833 29.9997 84.2666 30.833C81.1741 34.1663 78.49 37.5001 76.3041 41.6667C72.55 47.5001 69.7475 55.0001 68.565 62.5001H66.9716C63.1466 64.1667 62.205 70.8336 64.6958 78.3336C66.1575 83.3336 68.59 86.6665 71.0691 88.3332C74.3991 101.667 81.4533 112.499 90.6416 119.166V126.666L83.3583 133.333L68.7925 140.834C57.0133 146.667 45.2791 152.5 33.5133 158.333C26.9925 161.667 24.47 170 25.0916 176.666C25.395 181.666 23.7475 187.499 28.2775 189.999C32.5816 192.499 37.7166 190.834 42.39 190.834H83.3583H141.625C158.867 190.834 176.058 191.667 193.3 190.834C198.892 190.834 200.442 185 199.9 180C200 173.333 200.4 165.833 195.117 160.833C190.808 156.666 184.675 155 179.417 151.666C171.692 148.333 163.917 144.167 156.2 140.834L141.625 133.333L134.342 126.666V119.166C143.533 112.499 150.592 101.667 153.917 88.3332C156.4 86.6665 158.833 83.3336 160.292 78.3336C162.783 70.8336 161.842 64.1667 158.017 62.5001H156.425C155.242 55.0001 152.442 47.5001 148.683 41.6667C146.5 37.5001 143.817 34.1663 140.717 30.833C139.8 29.9997 138.967 29.167 137.983 28.3336H137.758C134.908 25.8336 131.733 23.3332 128.425 21.6665C127.592 21.6665 126.783 20.8334 125.925 20.8334C125.317 20.8334 124.725 20.0003 124.1 20.0003C122.242 19.167 120.35 19.1663 118.408 18.333H117.958H112.492Z" fill="#0057FF"/>
</g>
<defs>
<clipPath id="clip0_1429_85">
<rect width="200" height="200" fill="white"/>
</clipPath>
</defs>
</svg>
