<svg width="60%" height="60%" viewBox="0 0 100 100" fill="none" xmlns="http://www.w3.org/2000/svg">
<path d="M57.8906 40.2344L3.35938 14.375V9.21875L59.6875 36.1719L57.8906 40.2344Z" fill="#0057FF"/>
<path d="M39.2188 68.6719H63.0469V89.9219C63.0469 93.4375 65.8594 96.25 69.375 96.25C72.8906 96.25 75.7031 93.4375 75.7031 89.9219V68.6719C77.5781 68.6719 77.8125 67.4219 77.8125 66.0156V50.1563L57.8125 40.3906H15.4688L10 37.2656C8.28125 36.25 6.01563 36.875 5 38.6719C3.98438 40.3906 4.60938 42.6563 6.40625 43.6719L15 48.5938V90C15 93.5156 17.8125 96.3281 21.3281 96.3281C24.8438 96.3281 27.6563 93.5156 27.6563 90V73.8281L39.0625 93.0469C40.8594 96.0156 44.6875 97.0313 47.7344 95.2344C50.7031 93.4375 51.6406 89.5313 49.9219 86.5625L39.2188 68.6719Z" fill="#0057FF"/>
<path d="M59.7656 36.0937L77.7344 44.6094V41.25H92.3437L97.6562 29.6875L59.7656 11.6406V36.0937Z" fill="#0057FF"/>
</svg>
