<svg width="100%" height="100%" viewBox="0 0 100 100" fill="none" xmlns="http://www.w3.org/2000/svg">
<path d="M83.5039 36.7227H36.9611C36.0729 36.7227 35.3529 37.4428 35.3529 38.3309V38.8489C35.3529 39.5345 35.7827 40.1183 36.3869 40.3497V56.1542H34.4759V45.0232C34.4759 45.0205 34.4763 45.018 34.4763 45.0153V43.5409C34.4763 43.0776 34.0484 42.7327 33.5956 42.8311L30.9447 43.4074C30.6793 43.4651 30.4682 43.6661 30.3976 43.9284L30.2574 44.4492H28.1859C27.0989 44.4492 26.0729 44.9522 25.4069 45.8112L22.4379 49.6402C21.9209 50.3052 21.1829 50.7642 20.3579 50.9312L18.4449 51.3202C17.2089 51.5702 16.2679 52.5762 16.0979 53.8252L15.7579 56.3342C15.2409 56.6002 14.8879 57.1402 14.8879 57.7622V58.2802C14.8879 59.1682 15.6079 59.8882 16.4959 59.8882H18.6499C19.0109 61.8172 20.7029 63.2772 22.7359 63.2772C24.7689 63.2772 26.4619 61.8172 26.8229 59.8882H38.9119C39.2729 61.8172 40.9659 63.2772 42.9989 63.2772C45.0318 63.2772 46.7249 61.8172 47.0859 59.8882H48.4769C48.8379 61.8172 50.5299 63.2772 52.5639 63.2772C54.5969 63.2772 56.2889 61.8172 56.6499 59.8882H64.8489C65.2099 61.8172 66.9019 63.2772 68.9349 63.2772C70.9689 63.2772 72.6609 61.8172 73.0219 59.8882H74.4129C74.7739 61.8172 76.4669 63.2772 78.4999 63.2772C80.5329 63.2772 82.2259 61.8172 82.5869 59.8882H83.5039C84.3189 59.8882 84.9929 59.2812 85.0969 58.4942H85.1119V58.2802V57.7622V38.8527C85.1119 38.8514 85.1121 38.8502 85.1121 38.8489V38.3309C85.1121 37.4427 84.392 36.7227 83.5039 36.7227ZM17.9979 56.1543C17.8969 56.2523 17.7809 56.3083 17.6589 56.3083C17.5359 56.3083 17.4199 56.2523 17.3189 56.1543C17.0969 55.9383 16.9459 55.5173 16.9459 55.0333C16.9459 54.3293 17.2649 53.7583 17.6589 53.7583C18.0519 53.7583 18.3709 54.3293 18.3709 55.0333C18.3709 55.5173 18.2199 55.9383 17.9979 56.1543ZM24.5859 59.8883C24.2839 60.6123 23.5689 61.1223 22.7359 61.1223C21.9029 61.1223 21.1879 60.6123 20.8859 59.8883C20.7869 59.6523 20.7329 59.3923 20.7329 59.1193C20.7329 58.9013 20.7679 58.6913 20.8329 58.4943C21.0959 57.6943 21.8489 57.1163 22.7359 57.1163C23.6229 57.1163 24.3759 57.6943 24.6389 58.4943C24.7039 58.6913 24.7389 58.9013 24.7389 59.1193C24.7389 59.3923 24.6849 59.6523 24.5859 59.8883ZM32.7759 50.9863C32.7759 51.3593 32.4739 51.6613 32.1009 51.6613H25.9259C25.7359 51.6613 25.5579 51.5783 25.4269 51.4403C25.1929 51.1923 24.9249 50.9783 24.6329 50.8043C24.2879 50.5993 24.2059 50.1343 24.4529 49.8163L26.7499 46.8533C27.0919 46.4123 27.6289 46.1493 28.1859 46.1493H32.1009C32.4739 46.1493 32.7759 46.4513 32.7759 46.8243V50.9863ZM44.8479 59.8883C44.5469 60.6123 43.8319 61.1223 42.9989 61.1223C42.1659 61.1223 41.4509 60.6123 41.1499 59.8883C41.0509 59.6523 40.9959 59.3923 40.9959 59.1193C40.9959 58.9013 41.0309 58.6913 41.0959 58.4943C41.3589 57.6943 42.1119 57.1163 42.9989 57.1163C43.8859 57.1163 44.6389 57.6943 44.9019 58.4943C44.9669 58.6913 45.0019 58.9013 45.0019 59.1193C45.0019 59.3923 44.9469 59.6523 44.8479 59.8883ZM54.4129 59.8883C54.1109 60.6123 53.3959 61.1223 52.5639 61.1223C51.7309 61.1223 51.0159 60.6123 50.7139 59.8883C50.6149 59.6523 50.5599 59.3923 50.5599 59.1193C50.5599 58.9013 50.5949 58.6913 50.6599 58.4943C50.9229 57.6943 51.6769 57.1163 52.5639 57.1163C53.4499 57.1163 54.2039 57.6943 54.4669 58.4943C54.5319 58.6913 54.5669 58.9013 54.5669 59.1193C54.5669 59.3923 54.5119 59.6523 54.4129 59.8883ZM70.7849 59.8883C70.4829 60.6123 69.7679 61.1223 68.9349 61.1223C68.1029 61.1223 67.3879 60.6123 67.0859 59.8883C66.9869 59.6523 66.9319 59.3923 66.9319 59.1193C66.9319 58.9013 66.9669 58.6913 67.0319 58.4943C67.2949 57.6943 68.049 57.1163 68.9349 57.1163C69.8219 57.1163 70.5759 57.6943 70.8389 58.4943C70.9039 58.6913 70.9389 58.9013 70.9389 59.1193C70.9389 59.3923 70.8839 59.6523 70.7849 59.8883ZM80.3499 59.8883C80.0479 60.6123 79.3329 61.1223 78.4999 61.1223C77.6669 61.1223 76.9519 60.6123 76.6499 59.8883C76.5509 59.6523 76.4969 59.3923 76.4969 59.1193C76.4969 58.9013 76.5319 58.6913 76.5969 58.4943C76.8599 57.6943 77.6129 57.1163 78.4999 57.1163C79.3869 57.1163 80.1399 57.6943 80.4029 58.4943C80.4679 58.6913 80.5029 58.9013 80.5029 59.1193C80.5029 59.3923 80.4489 59.6523 80.3499 59.8883ZM79.9737 54.8533H41.525C41.0556 54.8533 40.675 54.4728 40.675 54.0033C40.675 53.5339 41.0556 53.1533 41.525 53.1533H79.9737C80.4431 53.1533 80.8237 53.5339 80.8237 54.0033C80.8237 54.4727 80.4432 54.8533 79.9737 54.8533ZM79.9737 43.9313H41.525C41.0556 43.9313 40.675 43.5507 40.675 43.0813C40.675 42.6119 41.0556 42.2313 41.525 42.2313H79.9737C80.4431 42.2313 80.8237 42.6119 80.8237 43.0813C80.8237 43.5508 80.4432 43.9313 79.9737 43.9313Z" fill="#0057FF"/>
</svg>
